<svg xmlns="http://www.w3.org/2000/svg" fill="none" viewBox="0 0 319 135">
  <path fill="#B6B6B6" d="M158.026 24.8182v13.5227h-42.645V24.8182h42.645ZM125.909 7.04545h17.483V76.6875c0 2.3504.354 4.1534 1.063 5.4091.74 1.2235 1.706 2.0606 2.897 2.5114 1.192.4507 2.512.6761 3.96.6761 1.095 0 2.093-.0805 2.995-.2415.934-.161 1.642-.3059 2.125-.4346l2.946 13.6676c-.934.3219-2.27.6761-4.009 1.0625-1.706.3863-3.799.6117-6.278.6759-4.379.129-8.323-.531-11.832-1.9799-3.51-1.4811-6.295-3.7671-8.356-6.858-2.028-3.0909-3.026-6.9545-2.994-11.5909V7.04545Zm97.506 37.38065-15.937 1.7387c-.451-1.6099-1.24-3.1231-2.367-4.5398-1.094-1.4167-2.576-2.5597-4.443-3.429-1.867-.8693-4.153-1.304-6.858-1.304-3.638 0-6.697.7889-9.176 2.3665-2.447 1.5777-3.654 3.6222-3.622 6.1335-.032 2.1572.756 3.912 2.366 5.2642 1.642 1.3523 4.347 2.4631 8.114 3.3324l12.653 2.7046c7.019 1.5132 12.235 3.9119 15.648 7.196 3.445 3.2841 5.184 7.5824 5.216 12.8949-.032 4.6686-1.401 8.7898-4.105 12.3636-2.673 3.5417-6.391 6.3106-11.156 8.3068-4.766 1.9963-10.239 2.9945-16.421 2.9945-9.079 0-16.388-1.8998-21.926-5.699-5.538-3.8314-8.838-9.16-9.901-15.9858l17.049-1.642c.772 3.3484 2.414 5.8759 4.926 7.5823 2.511 1.7065 5.779 2.5597 9.804 2.5597 4.153 0 7.486-.8532 9.997-2.5597 2.544-1.7064 3.815-3.8153 3.815-6.3267 0-2.125-.821-3.8797-2.463-5.2642-1.61-1.3844-4.121-2.4469-7.534-3.1875l-12.653-2.6562c-7.116-1.4811-12.38-3.9763-15.793-7.4858-3.413-3.5417-5.103-8.0171-5.071-13.4261-.032-4.572 1.208-8.5322 3.719-11.8807 2.543-3.3807 6.069-5.9887 10.577-7.8239 4.539-1.8674 9.771-2.8011 15.696-2.8011 8.693 0 15.535 1.8513 20.525 5.5539 5.023 3.7027 8.13 8.7093 9.321 15.0199Zm23.506-19.6079 14.971 27.3835 15.213-27.3835h18.497l-22.36 37.0909L295.989 99h-18.401l-15.696-26.7074L246.341 99h-18.545l22.602-37.0909-22.023-37.0909h18.546Z"/>
  <g stroke-linecap="round" stroke-width="24" clip-path="url(#a)">
    <path stroke="#3178C6" d="M12 122.672h80"/>
    <path stroke="#4CAE3D" d="m31.0667 11.9702 40.6061 39.0939-40.6061 39.0938"/>
  </g>
  <defs>
    <clipPath id="a">
      <path fill="#fff" d="M0 0h104v134.5H0z"/>
    </clipPath>
  </defs>
</svg>
