<svg xmlns="http://www.w3.org/2000/svg" xml:space="preserve" id="Layer_1" version="1.1" viewBox="0 0 1308.6 242"><path d="M58 242c-4.5-1.6-9.3-1.5-13.9-2.5-13-2.9-25-7.6-34-18-9.4-11-11.5-24-9.3-37.9s8.2-26.2 15.6-37.9Q38.6 110 69.9 82.2a329 329 0 0 1 101-59.9A349 349 0 0 1 240.3 3c27.4-4.3 54.6-4.7 81.4 3.6 14.8 4.6 28.1 11.8 35.9 26.1a52 52 0 0 1 1.2 46.6 193 193 0 0 1-26.2 42.4c-15.4 20.3-32.6 39.1-48 59.4q-4.7 5.9-7.6 12.8-4 10.8 7.6 11.9c8.2.6 16.3-.6 24.4-1.5 28.5-3.3 56.4-9.8 83.8-18.3 25.4-7.9 50-17.5 74.6-27.6 3.2-1.3 6.3-3.1 10.7-3.9a62 62 0 0 1-11.6 7.8A831 831 0 0 1 351.3 216a338 338 0 0 1-62.3 17.9 97 97 0 0 1-32.6.9q-6-1-11.2-4.2c-7.6-5-10.9-14-8.9-24.1 2.1-11 8-20.2 14.5-29 10.3-14.1 22.2-26.8 33.6-39.9a574 574 0 0 0 40.3-50.4c4.8-7 9.3-14.1 11.7-22.4q3.2-11.6-5.2-20.2A57 57 0 0 0 310.4 32c-12-4.9-24.5-8.2-36.9-11.8-1.5-.4-8.4 2.8-8.9 4-.4 1 .6 1.2 1 1.6l13.2 11.1-27 5.2q-46.5 9.1-91.7 23.8l-35.9 12c-2.6.8-2.9 1.9-1.9 4.2 1.7 4 3 8.1 4.8 12.1.8 1.9.4 3-1 4.4l-20.2 19.9c-2 1.9-1.7 2.6.9 3.3q48.5 12.2 88.5-17.8c2.1-1.5 2.1-2.6.4-4.5-2.3-2.5-5.1-4.4-7.9-6.7a22.7 22.7 0 0 1 21.4 21.5c.1 2.3-.4 3.5-2.9 3.1h-2.9q-2.2.1-2-2c.1-2.1.5-5.1-1.1-5.9-1.5-.8-3.2 1.8-4.8 2.9a108 108 0 0 1-99.8 15.8l-2.1-.7c-2.1-1-2.7-.4-2.7 1.8l.1 25.1c0 2.1-.6 3.1-2.6 3.9a98 98 0 0 0-36 24.5q-4.6 5-6.7 11.4c-2 7 .4 13.8 6.5 17.7a61 61 0 0 0 28.1 8.4c23.4 2.3 46.4-.8 69.4-4.8q20.3-3.5 40.4-8.9 1.6-.4 3.1-.3l-.1-.1a321 321 0 0 1-75 28.9q-19.8 4.5-40.2 6c-1 .1-2.1-.4-2.9.7q-8.4.2-17 .2m364.2 0c-2.3-1.5-5-2.1-7.1-3.9a17 17 0 0 1-4.4-19.6A16.6 16.6 0 0 1 429 209c7 1.2 12.5 7.5 13.2 15.1.7 7.3-3.7 14.2-10.5 16.8-.8.3-1.9.1-2.4 1.2zM412 225.1a14 14 0 0 0 13.7 14.1c7.4 0 13.8-6.4 13.9-13.8 0-7.6-6.1-14-13.5-14a13.7 13.7 0 0 0-14.1 13.7m240.5-22.5h-38.2c-1.7 0-1.7-1.1-2.1-2.2l-9.9-32.1c-.7-2.3-1.7-3.1-4.2-3.1h-52c-2.5 0-3.4.9-4.1 3.2l-9.9 31.8c-.6 2.1-1.6 2.5-3.5 2.5h-33.5c-2 0-2.8-.2-2-2.6q12-34.6 23.6-69.4L546.5 43c.6-1.9 1.5-2.4 3.4-2.4h45.3c2.3 0 3.1.9 3.7 2.8l24.5 72.8 28.3 83.5zM572.1 132h16.6c1.7 0 2.2-.4 1.6-2.2l-16.2-52.1c-.3-1.1-.5-2-2-2-1.4.1-1.4 1.1-1.7 2l-16.4 52c-.7 2.1 0 2.3 1.8 2.3zm530 57.7q-1 5.5-1.6 11c-.2 1.6-.6 2.4-2.5 2.4h-28.4c-1.6 0-2.4-.4-2.2-2.1v-2.2l-.1-154.7c0-3.1.8-3.9 3.8-3.8q14.7.2 29.3 0c2.3 0 2.8.7 2.8 2.9l-.1 50.6c0 1.2-.3 2.5.4 3.6 15.4-14.4 33.6-14.2 52.2-9.3 13.3 3.5 20.3 13.6 23.6 26.4 4.1 15.7 3.9 31.7 2.4 47.7a66 66 0 0 1-4.9 19.6 35 35 0 0 1-25.3 21.7 66 66 0 0 1-31.9-.3q-11.4-3-17.5-13.5m44.4-44.3-.6-10.8q-.3-5.5-2.1-10.9c-2.3-6.7-6.7-11.1-13.8-12.1-15.4-2.3-25.6 3.2-27.9 19.4a94 94 0 0 0 0 27.5c2 13.3 8.2 19.3 21.5 20 9.5.5 17.6-2.6 20.8-14.6 1.8-6 1.9-12.2 2.1-18.5M831.1 189q-1.1 6-1.6 11.2c-.2 2.5-1.2 2.9-3.4 2.8q-12.9-.2-25.8 0c-3.1.1-4.1-.6-4.1-3.9l.1-144.8V42.8c-.1-2 .4-2.7 2.6-2.7h30.3c2.3 0 2.8.6 2.8 2.8v54.8l1.1-.6a34 34 0 0 1 23.4-11.5c9.2-1.1 18.5-1 27.5 1.7a33 33 0 0 1 23.8 25.1c5.5 21.5 5.9 43.3-.4 64.7-5.1 17.3-17.4 26.2-36 27.5q-11.2 1-22.2-1.6c-7.2-1.8-13-5.5-16.6-12.2q-.6-.4-1.5-1.8m44.1-43.8a98 98 0 0 0-.7-13.3 27 27 0 0 0-5.7-14.9c-6.2-6.6-14.1-6.6-22.2-5.1s-12.7 6.9-14.6 14.6a78 78 0 0 0-.5 34.7c2.5 11.9 8.8 16.9 20.8 17.5 11.5.6 19.2-5.2 21.5-16.4a75 75 0 0 0 1.4-17.1m127.7 46.2c-11.7 13-26.6 14.4-42.1 13.3a37 37 0 0 1-22.6-8.3c-8.7-7.6-10.6-17.8-10.4-28.6a35 35 0 0 1 6.2-21c6.1-8 14.8-11 24.2-12.5 13.4-2.2 26.9-1.1 40.4-1.3 3.9-.1 3.9 0 3.7-4.1-.6-8.3-4-12.1-12.3-13.1a168 168 0 0 0-37.5.9c-2.1.2-2.5-.3-2.5-2.2V89.7c0-1.5.1-2.6 2-2.8 19.3-1.6 38.5-3.2 57.7 1q7.1 1.5 13.3 5.2c10.1 6 14.1 15.5 14.6 26.6q.3 8.9.1 17.8v62.3c0 1.5.5 3.1-2.2 3.1q-13.9-.2-27.7 0-2.3.1-2.6-2zm-.6-28.2v-2.9c.6-3.2-.7-4.2-4-4q-9.2.3-18.5.1-5.1-.1-10.1 1.1-7.6 2.2-7.3 10.9.3 7.7 8 9.2a37 37 0 0 0 23-2.5c5.3-2.4 10.4-5.4 8.9-11.9m271.5 28.3c-13.5 14.1-30.1 15-47.4 12.5-11.1-1.6-20.4-6.7-24.6-17.7a41 41 0 0 1 2.8-39c5.5-8.6 14.8-11.3 24.3-12.9 12.9-2.2 25.9-1.2 38.8-1.4 6.1-.1 6.1 0 5.2-6-1.1-6.9-4.3-10-11.5-11.1-7.8-1.2-15.7-.8-23.5-.4q-7.5.4-14.9 1.3c-1.7.2-2-.2-2-1.7V89.3c0-2 1-2.3 2.4-2.4 7.7-.5 15.5-1.3 23.2-1.5 12.7-.3 25.5-.2 37.9 3.5 15.1 4.5 23.6 14.8 24 30.6q.4 26.4.2 52.8v27.4c0 2.3-.4 3.4-3.1 3.3q-13.2-.3-26.5 0c-2 0-2.8-.6-3.2-2.5zm-15.4-35.2c-5.3.2-12-.7-18.4 1.4q-7 2.3-6.7 10.3 0 7.7 7.3 9.4c9.1 1.9 17.9 1 26.1-3.6 4.3-2.4 7.3-5.7 6.4-11.2q-.2-2 0-4.1.2-2.4-2.2-2.2zm-553.2-34.6.1 77.9c0 2.8-.8 3.5-3.6 3.5a954 954 0 0 0-29.3 0c-2.3 0-3.1-.4-3.1-2.9V43.1c0-2.3.7-2.8 2.9-2.8h30c2.6 0 3.1.8 3.1 3.2q-.2 39-.1 78.2m63.3 23.6V199c0 5 .1 4-4.2 4q-14.3-.1-28.7.1c-2.3 0-3.1-.5-3.1-2.9V90.5c0-2.6.9-3.1 3.3-3.1q14.5.2 29 0c3.3-.1 3.8 1 3.7 3.9zm-18-108.4c3.8.1 7.6-.1 11.4.7 4.4 1 6.6 3.1 7.4 7.6a59 59 0 0 1 0 19.6q-1.2 6.6-7.7 7.8a69 69 0 0 1-22.2 0q-6.5-1.2-7.7-7.9a54 54 0 0 1 0-19.3q1.1-6.7 8-7.9c3.6-.6 7.2-.5 10.8-.6" style="fill:#fc6703"/><path d="m193.3 206.4.3-.4q.4.2-.1.2zm235.6 19.4c2.4 2.5 3.9 4.9 5.3 7.6q-2.6 1-3.8-1.4-1.5-2.4-3.2-4.7c-1.3-1.7-3.3-1.6-5-1.1-1.4.4-.4 2-.7 3.1-.4 1.4 1.2 4.1-1.1 4.2-2.5 0-1.1-2.7-1.1-4.1l-.1-10.8q-.2-2.6 2.4-2.4h5.7c2.8 0 5.2.6 5.7 3.8q.7 4.5-4.1 5.8m-3.5-7.5c-1.3.5-3.7-1.3-3.9 2.2-.2 3.3 1.3 3.7 3.8 3.5 2.3-.2 5.2.1 5.1-3.2-.1-3-2.9-2.4-5-2.5" style="fill:#fc6703"/></svg>