<svg xmlns="http://www.w3.org/2000/svg" viewBox="0 0 512 169"><path d="M84 4.2c1.4 1.7 2.1 4 3.5 8.6l30.7 100.8a128 128 0 0 0-36.7-12.4l-20-67.5a2.6 2.6 0 0 0-5 0l-19.7 67.4A128 128 0 0 0 0 113.6L30.8 12.8C32.2 8.2 33 6 34.3 4.2A11 11 0 0 1 39 .8c2-.8 4.4-.8 9.3-.8h22c4.8 0 7.2 0 9.2.8A11 11 0 0 1 84 4.2"/><path fill="#FF5D01" d="M87.7 118.4c-5 4.3-15.2 7.3-26.8 7.3-14.2 0-26.2-4.5-29.4-10.5a33 33 0 0 0-1.4 9.9s-.7 12.3 7.8 20.8a8 8 0 0 1 8-8c7.7 0 7.7 6.6 7.7 12v.5c0 8.2 5 15.2 12 18.1a17 17 0 0 1-1.6-7.2c0-7.8 4.6-10.7 10-14 4.1-2.8 8.8-5.7 12-11.7a22 22 0 0 0 2.7-10.5 22 22 0 0 0-1-6.7"/><path d="M188.6 112c12.8 0 22.4-4.5 26.4-12.3 0 3.7.2 7.5.8 10.5H237v-.3q-1.5-6.3-1.4-17.5V73.2c0-18-10.7-26.6-34.2-26.6-20.6 0-34.4 8.6-36 22.5h22c.7-6 5.7-9.4 14-9.4 8.1 0 12.7 3.4 12.7 10.3v1.8l-22.3 2a46 46 0 0 0-21.2 5.8l-.2.1q-6.8 4.7-6.9 13.6c0 11.6 9.6 18.7 25.2 18.7m8.1-12.8c-7.1 0-11.4-2.8-11.4-7.4s3.5-7.2 12.5-8.3l16.6-1.7v3.7c0 8.3-7.2 13.7-17.7 13.7m84.7 12.8c21.5 0 32.5-8 32.5-21 0-10.7-6.2-16.6-21.1-18.6l-18.7-2c-5.3-.8-7.5-2.2-7.5-5.1 0-3.6 3.6-5.2 11.7-5.2a38 38 0 0 1 25.3 7.6l10-10c-6.9-7.1-18.9-11-33.7-11-20.8 0-32.4 7.3-32.4 19.8 0 10.9 7.2 16.9 22 18.9l16.7 2c6.7.8 8.7 2 8.7 5.3 0 3.7-3.7 5.6-12.4 5.6-12.8 0-21.4-3.4-27.2-9.8L244 97.8c7.5 9.4 20.4 14.2 37.5 14.2m49.9-49.6v26c0 15.4 8.6 23.1 27.1 23.1 5.7 0 10.1-.6 14.3-1.8v-16h-.3q-3.2.9-8.2 1-11.6 0-11.6-10.8V62.4h20.2V48.5h-20.2V25.9l-21.3 8v14.6h-13.8v14zm72.2-13.9H384v61.7h21.3V87c0-6.7 1.5-12.7 5.6-16.5Q415.5 66 425 66q3.3.1 6.2.5V47.1c-1.3-.2-2.3-.2-4-.2-12.2 0-20.5 7-23.8 18.5zm70 63.5c22.6 0 38.5-12 38.5-32.8s-16-32.6-38.5-32.6c-22.7 0-38.6 11.9-38.6 32.6 0 20.9 16 32.8 38.6 32.8m0-14.2c-10.3 0-16.9-6.6-16.9-18.6s6.6-18.4 17-18.4c10.2 0 16.7 6.4 16.7 18.4s-6.5 18.6-16.8 18.6"/></svg>