<svg xmlns="http://www.w3.org/2000/svg" xml:space="preserve" id="svg2" viewBox="0 0 580 217.5" version="1.1"><g id="g10" transform="matrix(1.25 0 0 -1.25 0 217.5)"><g id="g12" transform="scale(.1)"><path id="path14" d="m1289.7 1140-269.7 90v390l270-80z" style="fill:#f68d11;fill-opacity:1;fill-rule:nonzero;stroke:none"/><path id="path16" d="m1360 1540 270 80-1-389.7-269-90.3z" style="fill:#f68d11;fill-opacity:1;fill-rule:nonzero;stroke:none"/><path id="path18" d="m1575 1662.2-251.6 77.8-248.4-77.8 248.7-66.6z" style="fill:#f68d11;fill-opacity:1;fill-rule:nonzero;stroke:none"/><path id="path20" d="m1969.7 1140-269.7 90v390l270-80z" style="fill:#f68d11;fill-opacity:1;fill-rule:nonzero;stroke:none"/><path id="path22" d="m2040 1540 270 80-1-389.7-269-90.3z" style="fill:#f68d11;fill-opacity:1;fill-rule:nonzero;stroke:none"/><path id="path24" d="m2255 1662.2-251.6 77.8-248.4-77.8 248.7-66.6z" style="fill:#f68d11;fill-opacity:1;fill-rule:nonzero;stroke:none"/><path id="path26" d="M270 970 0 1050V660l269.7-90z" style="fill:#f68d11;fill-opacity:1;fill-rule:nonzero;stroke:none"/><path id="path28" d="m340 970 270 80-1-389.7L340 570z" style="fill:#f68d11;fill-opacity:1;fill-rule:nonzero;stroke:none"/><path id="path30" d="M555 1092.2 303.4 1170 55 1092.2l248.7-66.6z" style="fill:#f68d11;fill-opacity:1;fill-rule:nonzero;stroke:none"/><path id="path32" d="M949.7 570 680 660v390l270-80z" style="fill:#f68d11;fill-opacity:1;fill-rule:nonzero;stroke:none"/><path id="path34" d="m1020 970 270 80-1-389.7-269-90.3z" style="fill:#f68d11;fill-opacity:1;fill-rule:nonzero;stroke:none"/><path id="path36" d="M1235 1092.2 983.4 1170 735 1092.2l248.7-66.6z" style="fill:#f68d11;fill-opacity:1;fill-rule:nonzero;stroke:none"/><path id="path38" d="M609.7 0 340 90v390l270-80z" style="fill:#f68d11;fill-opacity:1;fill-rule:nonzero;stroke:none"/><path id="path40" d="m680 400 270 80-1-389.7L680 0z" style="fill:#f68d11;fill-opacity:1;fill-rule:nonzero;stroke:none"/><path id="path42" d="M895 522.2 643.4 600 395 522.2l248.7-66.6z" style="fill:#f68d11;fill-opacity:1;fill-rule:nonzero;stroke:none"/><path id="path44" d="m1803.9 344.8-19.8-.1c-7.3 0-16.6-5-18.9-13l-60.2-212-59.5 211.6c-1.8 6.7-8 13.4-16.5 13.4h-23.5c-8.5 0-14.7-6.8-16.4-13.5l-55.3-209.4-57.3 210c-2.2 7.7-11.7 12.9-19.2 12.9h-28.5c-6.1 0-11.8-2.6-14.9-6.8a10 10 0 0 1-1.6-9L1500.7 16c2-6.6 7.6-13.2 16-13.2h28.3c7.7 0 14.4 5.6 16.4 13.5l54.4 208.5L1675 16c1.8-6.4 7.5-13.3 15.9-13.3h28c7.7 0 14.2 5.4 16.1 13.3l85.1 312.7c1 3 .5 6.4-1.6 9.2a18 18 0 0 1-14.6 6.7" style="fill:#100f0d;fill-opacity:1;fill-rule:nonzero;stroke:none"/><path id="path46" d="M2049.4 211.9h-150c3.5 42 30.8 85.7 77 87.4 49.3-1.6 71.9-44.3 73-87.4m-73 135c-101.3 0-147.5-89.5-147.5-172.7 0-103.8 57.4-171 146.1-171 63.6 0 112 32.2 133 88.2q1.5 5-1 9.9a17 17 0 0 1-11 7.6l-28.1 5.4c-7.6 1.2-16.2-3.3-19-9.7-13.7-31.2-38.6-48.9-69.9-49.8a81 81 0 0 0-70.3 45.5c-10.3 21.8-11.8 43.3-12 65.1h203.6a17 17 0 0 1 11.8 5.1q4 4 4 9.2c-.5 80.9-37.4 167.3-139.7 167.3" style="fill:#100f0d;fill-opacity:1;fill-rule:nonzero;stroke:none"/><path id="path48" d="M2366.6 173.7c0-19.1-3.5-114.8-71.4-117.3a76 76 0 0 0-58.7 34c-9.5 15-15 35.8-16.4 61.4V208c1.1 43 31.5 90.4 74.9 92.2 68.2-2.7 71.6-106 71.6-126.6M2305.8 350h-5.4c-33.6 0-60-14-80.3-42.6v132c0 7.3-7.7 14-16.1 14h-29.3c-7.7 0-16.2-6-16.2-14v-412c0-7.4 7.6-14.2 16-14.2h8.7c8.1 0 13.9 6.6 15.8 12.7l9.2 29c21.3-30.2 53.3-48 87.6-48h5.3c90.3 0 130.8 88 130.8 175 0 43.4-10.7 84.8-29.4 113.8a117 117 0 0 1-96.7 54.3" style="fill:#100f0d;fill-opacity:1;fill-rule:nonzero;stroke:none"/><path id="path50" d="M2752.5 183c-19 13.7-42 18.2-64.9 22.8l-44 8.2c-31.5 5.1-49.8 13.6-49.8 41.4 0 29.5 30.5 40.7 56.4 41.4 31.6-.8 55.3-14.9 66.9-39.6a17 17 0 0 1 15-9.8q1.8 0 3.3.3l27.4 6.1c4.5 1 8.7 4 11 8q2.6 5 1 9.8c-16.8 48.9-59.4 74.7-123.9 74.7-58.2-.1-120.5-26-120.5-98.4 0-49.4 31-80.8 92.4-93.3l49.3-9.4c27-5.2 54.6-14.4 54.6-43.4 0-43-50-47.3-65-47.7-34 .8-72.4 15.9-81.7 48-1.9 7-10.7 12-18.5 10.3l-28.7-5.9a17 17 0 0 1-10.6-7.5q-2.8-5-1.5-10c14.8-53 66-85.1 137.2-85.6h1.5c63.5 0 131.4 27.1 131.4 103.4a92 92 0 0 1-38.3 76.2" style="fill:#100f0d;fill-opacity:1;fill-rule:nonzero;stroke:none"/><path id="path52" d="M3042.8 211.6h-150c3.4 42.1 30.7 85.8 77 87.4 49.2-1.6 71.8-44.2 73-87.4m-73 135.1c-101.4 0-147.6-89.6-147.6-172.8 0-103.8 57.4-171 146.2-171 63.5 0 112 32.2 132.9 88.3q1.6 5-1 9.8a17 17 0 0 1-11 7.7l-28.1 5.4c-6.6 1-15.8-2.4-19-9.8-13.7-31.2-38.6-48.9-69.8-49.8A81 81 0 0 0 2902 100c-10.3 21.7-11.9 43.2-12 65.1h203.6a17 17 0 0 1 11.7 5.1 13 13 0 0 1 4 9.2c-.4 80.9-37.4 167.3-139.7 167.3" style="fill:#100f0d;fill-opacity:1;fill-rule:nonzero;stroke:none"/><path id="path54" d="M3301.7 342.9q-6 .6-11.5.6c-34.2 0-62-18.5-81.2-54v31c0 7.6-7.5 14.2-16 14.2h-25.4c-8.4 0-15.7-6.6-15.8-14.3V18.5c0-7.6 7.3-14.2 15.7-14.2h29.7c7.7 0 16.4 6 16.5 14.2v152.2c0 25.1 2.4 44 14.3 66.4 17.2 31.9 41 47.5 73.2 47.8 8 0 15 7 15 15V328c0 7.4-6.3 13.9-14.5 14.8" style="fill:#100f0d;fill-opacity:1;fill-rule:nonzero;stroke:none"/><path id="path56" d="M3613.2 348.8h-23.4c-7.4 0-16.8-5.3-19-13l-76-238.7-77.6 238.5c-2.3 7.9-11.7 13.2-19 13.2h-33.5c-6.2 0-12.1-2.7-15.1-7q-3-4.4-1.6-9L3454 18c2-6.2 7.5-13.5 16-13.5h40.5c7.4 0 13.5 5 16.3 13.6l103 314.7q1.5 4.6-1.6 9c-3 4.4-9 7.1-15.1 7.1" style="fill:#100f0d;fill-opacity:1;fill-rule:nonzero;stroke:none"/><path id="path58" d="M3690.2 469.9a39.2 39.2 0 1 1 .2-78.5 39.2 39.2 0 0 1-.2 78.5" style="fill:#100f0d;fill-opacity:1;fill-rule:nonzero;stroke:none"/><path id="path60" d="M3706.3 350.7h-32.1c-8.8 0-16.7-7-16.7-14.8l-.2-320.5q.1-6.2 5.5-10.6A18 18 0 0 1 3674 .7h32.3c8.9 0 16.7 6.9 16.7 14.6V336c0 8-7.9 14.8-16.8 14.8" style="fill:#100f0d;fill-opacity:1;fill-rule:nonzero;stroke:none"/><path id="path62" d="M4006.6 133.3h-26.9c-7.5 0-13.7-4.6-16.5-12.4-9.8-42.3-32-64.2-65.7-65.1-65.5 2-70.6 93.3-70.6 121.3 0 55.7 19.3 115.9 73.2 117.5 32.5-1 56.2-24.4 63.3-62.4a18 18 0 0 1 15.4-14.6l28.7-.3c8.6 1 15.3 7.4 15.3 15.5-10.2 68.7-57.8 113-121.4 113h-4.7c-92.5 0-134-86.3-134-171.9 0-78.5 35-170 133.5-170h4.7c62 0 108.9 43.4 122.3 114q.4 5-3.3 9.4a19 19 0 0 1-13.3 6" style="fill:#100f0d;fill-opacity:1;fill-rule:nonzero;stroke:none"/><path id="path64" d="M4271.5 211.6h-150c3.4 42.1 30.8 85.8 77.1 87.4 49.3-1.6 71.8-44.2 73-87.4m-73 135.1c-101.3 0-147.5-89.6-147.5-172.8 0-103.8 57.4-171 146.2-171 63.5 0 112 32.2 132.9 88.2q1.5 5.1-1 9.9-3.5 5.9-11 7.7L4290 114c-6.6 1-15.8-2.4-19-9.8-13.7-31.2-38.7-48.9-69.9-49.8a81 81 0 0 0-70.3 45.5c-10.3 21.8-11.8 43.3-12 65.1h203.7a17 17 0 0 1 11.8 5.1q4 4.2 4 9.2c-.5 80.9-37.5 167.3-139.8 167.3" style="fill:#100f0d;fill-opacity:1;fill-rule:nonzero;stroke:none"/><path id="path66" d="M4593.3 183c-19 13.7-42 18.2-64.9 22.8l-44 8.2c-31.5 5.1-49.7 13.6-49.7 41.4 0 38 47.1 41.2 56.3 41.4 31.6-.8 55.3-14.9 66.9-39.7a17 17 0 0 1 15.1-9.7l3.3.3 27.4 6.1c4.5 1 8.6 4 10.9 8q2.7 5 1 9.8c-16.7 48.9-59.3 74.7-123.9 74.7-58.2-.1-120.4-26-120.4-98.4 0-49.5 31-80.9 92.4-93.3l49.2-9.4c27-5.2 54.7-14.4 54.7-43.4 0-43-50-47.3-65.1-47.7-31.5.7-71.7 13.7-81.6 47.9-1.8 7-10.7 12-18.6 10.4l-28.7-5.9c-4.3-1-8.3-3.7-10.6-7.6q-2.8-4.8-1.5-9.8c14.8-53.2 66-85.2 137.1-85.7h1.6c63.5 0 131.4 27.1 131.4 103.4a92 92 0 0 1-38.3 76.2" style="fill:#100f0d;fill-opacity:1;fill-rule:nonzero;stroke:none"/><path id="path68" d="M3287.2 968v72.8a18 18 0 0 0 18.4 18.4h326.2c10.4 0 18.8-7.6 18.8-18.3v-62.5c-.1-10.4-9-24-24.6-45.8l-169-241.2c62.8 1.5 129.1-7.9 186-40 13-7.1 16.4-17.8 17.4-28.3v-77.7c0-10.7-11.7-23-24-16.6-100.4 52.6-233.6 58.3-344.6-.6-11.4-6-23.2 6.1-23.2 16.8v73.8c0 11.8.2 32 12 50l195.8 280.8H3306a18 18 0 0 0-18.8 18.4" style="fill:#100f0d;fill-opacity:1;fill-rule:evenodd;stroke:none"/><path id="path70" d="M2097.5 513.5h-99.3c-9.4.6-17 7.7-17.7 16.8v509.2c0 10.2 8.6 18.4 19.2 18.4h92.4c9.7-.5 17.4-7.8 18-17v-66.6h2c24 64.3 69.4 94.3 130.5 94.3 62 0 101-30 128.7-94.3 24.1 64.3 78.8 94.3 137.2 94.3 41.6 0 87-17.1 114.8-55.7 31.5-42.9 25-105 25-159.7l-.1-321.4c0-10.2-8.6-18.3-19.1-18.3H2530c-10 .6-17.8 8.5-17.8 18.3v270c0 21.4 1.8 75-2.8 95.3-7.5 34.4-29.7 44-58.4 44-24 0-49.1-16.1-59.3-41.8s-9.2-68.6-9.2-97.5v-270c0-10.2-8.6-18.3-19.2-18.3h-99.1c-10 .6-17.8 8.5-17.8 18.3l-.1 270c0 56.8 9.3 140.3-61.1 140.3-71.3 0-68.6-81.4-68.6-140.3v-270c0-10.2-8.6-18.3-19.1-18.3" style="fill:#100f0d;fill-opacity:1;fill-rule:evenodd;stroke:none"/><path id="path72" d="M3932.3 964.7c-73.2 0-77.8-99.7-77.8-161.9 0-62.1-1-195 76.9-195 76.9 0 80.6 107.2 80.6 172.5 0 42.9-1.9 94.3-14.8 135-11.2 35.4-33.4 49.4-65 49.4m-1 103.9c147.3 0 227-126.5 227-287.2 0-155.4-88-278.6-227-278.6-144.4 0-223.2 126.4-223.2 284 0 158.6 79.7 281.8 223.3 281.8" style="fill:#100f0d;fill-opacity:1;fill-rule:evenodd;stroke:none"/><path id="path74" d="M4349.3 513.5h-98.9c-10 .6-17.8 8.5-17.8 18.3l-.1 509.5c.8 9.3 9 16.6 19 16.6h92c8.8-.5 15.9-6.4 17.7-14.3v-77.9h1.9c27.7 69.7 66.7 102.9 135.2 102.9 44.4 0 88-16 115.8-60C4640 967.9 4640 899.3 4640 850V529.5c-1.1-9-9.2-16-19-16h-99.5c-9.2.6-16.5 7.3-17.7 16v276.6c0 55.7 6.5 137.1-62 137.1-24 0-46.3-16-57.4-40.7-14-31-15.8-62.1-15.8-96.4V531.8a19 19 0 0 0-19.3-18.3" style="fill:#100f0d;fill-opacity:1;fill-rule:evenodd;stroke:none"/><path id="path76" d="M3127.2 514.8c-6.6-6-16-6.3-23.4-2.4-33 27.4-38.9 40.1-57 66.2-54.4-55.5-93-72.1-163.5-72.1-83.6 0-148.5 51.5-148.5 154.6 0 80.5 43.6 135.3 105.8 162.2 53.8 23.6 129 28 186.6 34.4v12.9c0 23.6 1.8 51.5-12.1 72-12 18.2-35.3 25.7-55.7 25.7-37.9 0-71.5-19.4-79.8-59.6-1.7-9-8.2-17.8-17.2-18.3l-96.2 10.5c-8 1.8-17.1 8.3-14.8 20.7 22.1 116.7 127.5 152 222 152 48.2 0 111.3-13 149.4-49.4 48.2-45.2 43.6-105.3 43.6-170.8V698.8c0-46.5 19.3-67 37.5-92 6.3-9 7.7-19.7-.4-26.4-20.2-17-56.3-48.2-76-65.9zm-100 242c0-38.8.9-71-18.6-105.4-15.8-27.9-40.9-45-68.7-45-38 0-60.3 29-60.3 71.9 0 84.5 75.8 99.9 147.6 99.9z" style="fill:#100f0d;fill-opacity:1;fill-rule:evenodd;stroke:none"/><path id="path78" d="M1826.5 514.8c-6.6-6-16.1-6.3-23.5-2.4-33 27.4-38.9 40.1-56.9 66.2-54.4-55.5-93-72.1-163.6-72.1C1499 506.5 1434 558 1434 661c0 80.5 43.6 135.3 105.8 162.2 53.9 23.6 129 28 186.6 34.4v12.9c0 23.6 1.9 51.5-12 72-12.1 18.2-35.4 25.7-55.8 25.7-37.8 0-71.5-19.4-79.7-59.6-1.7-9-8.3-17.8-17.3-18.3l-96.1 10.5c-8.2 1.8-17.2 8.3-14.9 20.7 22.1 116.7 127.5 152 222 152 48.2 0 111.3-13 149.4-49.4 48.3-45.2 43.6-105.3 43.6-170.8V698.8c0-46.5 19.4-67 37.5-92 6.3-9 7.7-19.7-.3-26.4-20.3-17-56.3-48.2-76.1-65.9zm-100.1 242c0-38.8 1-71-18.5-105.4-15.8-27.9-41-45-68.7-45-38.1 0-60.4 29-60.4 71.9 0 84.5 75.8 99.9 147.6 99.9z" style="fill:#100f0d;fill-opacity:1;fill-rule:evenodd;stroke:none"/></g></g></svg>