<svg xmlns="http://www.w3.org/2000/svg" viewBox="0 0 400 400" fill="none"><rect width="400" height="400" fill="#E88C1F" rx="30"/><path fill="#FFF" stroke="#000" stroke-width="18" d="M312 122.5c.2-2.1-1.4-3.1-2.5-4.5a132 132 0 0 0-47.6-36.3q-16-7.2-33.9-9.4a143 143 0 0 0-34-.8 131 131 0 0 0-92.8 55.6A115 115 0 0 0 83 166.5a126 126 0 0 0-4.2 44.5 125 125 0 0 0 26.8 70.4 126 126 0 0 0 38.5 33.5 131 131 0 0 0 133.4-2.5c13.2-8.2 25.1-18 34.4-31.1L246 231.9a48 48 0 0 1-37.4 17.1 45 45 0 0 1-33.9-15.6 47 47 0 0 1 5.8-68 47.6 47.6 0 0 1 65.5 7.2q33-24.6 66-50.1z"/></svg>