<svg xmlns="http://www.w3.org/2000/svg" viewBox="0 0 512 99"><path fill="#F07" d="M163.5 25a24 24 0 0 1 18 7.5l.4.3 6.6-6.3-.2-.4a33 33 0 0 0-25.2-10c-20.2 0-35 14-35 33.4s14.6 33.4 34.9 33.4c10.3 0 19.2-3.5 25.3-10.2l.2-.4-6.6-6.3-.3.3q-7.5 7.6-18.1 7.7C148.8 74 138 63.7 138 49.5S149 25 163.5 25m52.9 49.5c-9.7 0-16.4-7-16.4-16.9 0-10 6.7-16.8 16.4-16.8s16.3 6.9 16.3 16.8-6.7 16.9-16.3 16.9m0-42.2c-15.2 0-26.2 10.7-26.2 25.3s11 25.3 26.2 25.3 26.1-10.6 26.1-25.3c0-14.6-11-25.3-26.1-25.3m55.5 42.2c-9.6 0-16.5-7-16.5-17s6.7-17 16.5-17c9.6 0 16.3 7 16.3 17s-6.7 17-16.3 17m16.3-35.3c-4-4.7-10-7.2-17-7.2-15 0-25.4 10.5-25.4 25.5s10.4 25.4 25.5 25.4c7.1 0 13.4-2.7 17.3-7.6v7h9.3V12.8H288zm41 1.3c8 0 14 5.4 15.2 13.2h-30.2c1-7.8 6.9-13.2 15-13.2m0-8.2c-14.3 0-24.6 10.7-24.6 25.3 0 14.9 10.8 25.3 26.4 25.3q12.4 0 19.5-8l.1-.1-5.4-6.2-.3.3q-5.1 5.7-13.7 5.7c-9.1 0-15.8-5.2-17.1-13.5h39.1v-.4c.2-.8.2-2 .2-2.7.2-15.2-10-25.7-24.2-25.7m69 35.3q-4.6 6.8-13.3 6.9c-10 0-16.6-6.9-16.6-16.9a16 16 0 0 1 16.6-16.8q8.7 0 13.3 6.9l.1.3 7.5-4.7-.1-.3a23 23 0 0 0-20.6-10.7c-15.4 0-26.6 10.7-26.6 25.3S369.7 83 385 83c9.1 0 16.7-3.9 20.6-10.7l.1-.4-7.5-4.5zm37 6.9c-9.6 0-16.3-7-16.3-16.9 0-10 6.7-16.8 16.3-16.8s16.4 6.9 16.4 16.8-6.7 16.9-16.4 16.9m0-42.2c-15.2 0-26.1 10.7-26.1 25.3s11 25.3 26.1 25.3 26.2-10.6 26.2-25.3c0-14.6-11.1-25.3-26.2-25.3m67.3 0L486 70.5l-16.4-38.2h-10L481 81.1l.1.2h9.5l21.4-49zM52 0C23.3 0 0 23 0 51.2v.3l8.8 5H9a25.6 25.6 0 0 1 31.4 2.3l1.6 1.4 1-1.8 2.7-5.1 1.4-1.8 1-1.2-1.2-1a38 38 0 0 0-34.4-6.8A40 40 0 0 1 52 11.3a40 40 0 0 1 39.4 31.2 34 34 0 0 0-10.8-1.7h-.7l-4.4.3h-.2l-1.6.2-2.6.5-.7.2-2 .7H68q-2.3.7-4.6 1.8l-2 1.2h-.3q-5.4 3-9.2 7.8l-.3.5-1.6 2q-.6.8-1.1 2l-.3.4-.9 1.8v.3q-1.1 2-1.9 4.6v.2A39 39 0 0 0 44 77.1v4.4l.2 1.6A37 37 0 0 0 52 98.8l.2.2.2-.2c1.6-1.9 5.3-7.7 5.8-11.1a24 24 0 0 1-2.8-11c0-13 10.2-23.9 23.3-24.6h1c5.3-.2 10.6 1.4 15 4.4h.2l8.8-5v-.3A50 50 0 0 0 88.4 15 51 51 0 0 0 52 0"/></svg>