<svg xmlns="http://www.w3.org/2000/svg" viewBox="0 0 163 136"><g id="Page-1" fill="none" fill-rule="evenodd" stroke="none" stroke-width="1"><g id="Solid-logo" fill="#FFF" transform="translate(-19 -32)"><g id="White-logo" transform="translate(19 32)"><path id="Parans" d="M.4 67.8A95 95 0 0 1 28.4.1h18a92 92 0 0 0-28.1 67.7q0 39.7 28.2 67.7H28.3A93 93 0 0 1 .4 67.8m162.2 0a95 95 0 0 1-28 67.7h-18a92 92 0 0 0 28.1-67.7q0-39.7-28.2-67.7h18.2a93 93 0 0 1 27.9 67.7"/><g id="Hands" transform="translate(67 9)"><path id="Hand" d="M0 0h12v69H0z"/><path id="Hand" d="M27 6h11v69H27z" transform="scale(-1 1)rotate(-45 0 119)"/></g></g></g></g></svg>