<svg xmlns="http://www.w3.org/2000/svg" width="128" height="128" fill="none"><circle cx="64" cy="64" r="64" fill="#2F3242"/><path fill="#A2ECFB" d="M51.4 39.5A1.8 1.8 0 0 0 52 36zm-22.8 4 1.6 1zM29 61a1.8 1.8 0 0 0 3.2-1.8zm8.8 5.8a1.8 1.8 0 0 0-2.7 2.5zm16 15-.9 1.6zM97 89.5a1.8 1.8 0 1 0-2-3zM52 36a37 37 0 0 0-15 0 15 15 0 0 0-10 6.7l3.2 1.8q2.2-3.7 7.6-5 5.7-1.5 13.6 0zm-25 6.7c-3 5.2-1.7 11.8 2 18.2l3-1.8q-5-9-1.8-14.6zm8 26.5c4.6 5 10.7 10 17.8 14l1.8-3q-10.3-6.1-17-13.5zm17.8 14c8.5 5 17.2 8 25 9.2 7.6 1 14.5.3 19.1-2.9l-2-3c-3.6 2.5-9.4 3.3-16.6 2.3a68 68 0 0 1-23.7-8.7zm52.6 1.7c0-3.5-2.9-6.3-6.3-6.3v3.6c1.5 0 2.7 1.2 2.7 2.7zM99 78.6a6.3 6.3 0 0 0-6.3 6.3h3.6c0-1.5 1.2-2.7 2.7-2.7zM92.8 85c0 3.5 2.8 6.3 6.3 6.3v-3.6a2.7 2.7 0 0 1-2.7-2.7zm6.3 6.3c3.4 0 6.3-2.8 6.3-6.3h-3.6c0 1.5-1.2 2.7-2.7 2.7z"/><path fill="#A2ECFB" d="M91.5 65.4a1.8 1.8 0 1 0 2.7 2.3zm7.8-21.8-1.5 1zm-14.8-8.4a1.8 1.8 0 1 0 0 3.6zM75 40a1.8 1.8 0 0 0-.7-3.5zm-21.1 6.5.9 1.5zM25.5 80.9a1.8 1.8 0 0 0 3.6-.5zm68.7-13.2q5.6-6.6 7.6-13a15 15 0 0 0-1-12l-3 1.8q2 3.6.5 9.2-1.6 5.5-6.8 11.7zm6.7-25c-3-5.1-9.2-7.4-16.4-7.5v3.6q10 .3 13.3 5.7zm-26.7-6.3a75 75 0 0 0-21.3 8.4l1.8 3.1q10.6-6 20.2-8zm-21.3 8.4A71 71 0 0 0 32 62.4c-4.7 6.2-7.4 12.8-6.6 18.5l3.6-.5c-.6-4.3 1.4-9.9 6-15.8a68 68 0 0 1 19.6-16.7z"/><path fill="#A2ECFB" d="M49 87.2a1.8 1.8 0 1 0-3.3 1.2zm29.6 9.2a1.8 1.8 0 0 0-3.1-1.8zm1-11.2a1.8 1.8 0 1 0 3.4 1zM84.4 64h-1.8zM69.2 22.5a1.8 1.8 0 1 0-1.5 3.3zm-23.5 66q2.8 8 7.5 13a15 15 0 0 0 10.8 5.2v-3.6q-4.2 0-8.2-4-4-4.3-6.7-11.9zM64 106.6c5.9 0 10.9-4.2 14.6-10.3l-3.1-1.8Q70.2 103 64 103zm19-20.4q3.1-9.9 3.2-22.2h-3.6q0 11.9-3 21zM86.2 64a72 72 0 0 0-4.7-26.4c-3-7.3-7.2-12.9-12.3-15.2l-1.5 3.3q6.1 2.8 10.5 13.2a68 68 0 0 1 4.4 25z"/><path stroke="#A2ECFB" stroke-linecap="round" stroke-width="3.6" d="M103.6 85a4.5 4.5 0 1 0-9-.1 4.5 4.5 0 0 0 9 0zm-74.8 4.4a4.5 4.5 0 1 0 0-9 4.5 4.5 0 0 0 0 9z" clip-rule="evenodd"/><circle cx="64" cy="23.2" r="4.5" stroke="#A2ECFB" stroke-linecap="round" stroke-width="3.6"/><path fill="#A2ECFB" fill-rule="evenodd" d="M64.9 68a4.1 4.1 0 1 1-1.8-8 4.1 4.1 0 0 1 1.8 8" clip-rule="evenodd"/></svg>