<svg xmlns="http://www.w3.org/2000/svg" viewBox="0 -0.1 960.6 264.5"><path d="M232.2 0v204l26.2.1V107h63.3V81.3h-63.3V25.7h82.4V0zm155.9 41.4a17 17 0 1 0 0-34.2 17 17 0 0 0 0 34.2m-13.3 25.7V204H401V67.1z"/><path fill-rule="evenodd" d="M498.3 63.1c-34.9 0-59.2 29.5-59.2 64.5s24.3 64.5 59.2 64.5c16 0 29.1-6.2 38.7-16.2V194a41 41 0 0 1-41.1 41.6c-8.4 0-16.7-3.2-23.3-7.8l-13.2 22.8A67.3 67.3 0 0 0 563.1 194V67.1H537v12.2a52 52 0 0 0-38.7-16.2m-32.9 64.5c0-21.7 16.6-38.8 35.8-38.8s35.8 17.1 35.8 38.8-16.6 38.8-35.8 38.8-35.8-17.1-35.8-38.8" clip-rule="evenodd"/><path d="M657.8 88.8a28.6 28.6 0 0 0-28.1 28.7V204h-26.2V67.1h26.2v12.5c7.7-9.9 19-16.5 33.8-16.5 18.4 0 32.5 9.1 40.7 23.1A50 50 0 0 1 746 63.1c29.9 0 48.5 24.1 48.6 53.9v87h-26.2v-86.6c0-15.5-12.6-28.7-28.1-28.7s-28.1 13.2-28.1 28.7V204H686v-86.6a28.7 28.7 0 0 0-28.2-28.6"/><path fill-rule="evenodd" d="M934.4 82.6a63 63 0 0 0-46.2-19.5c-39 0-66.8 33.1-66.8 72.5s27.7 72.5 66.8 72.5c18.5 0 34.5-7.5 46.2-19.5V204h26.2V67.1h-26.2zm-86.7 53c0-26.1 20-46.8 43.4-46.8s43.4 20.6 43.4 46.8-20 46.8-43.4 46.8c-23.4-.1-43.4-20.7-43.4-46.8" clip-rule="evenodd"/><path fill="none" d="M0 0h176.3v264.4H0z"/><path fill="#1abcfe" d="M88.1 132.2a44.1 44.1 0 1 1 88.2 0 44.1 44.1 0 0 1-88.2 0"/><path fill="#0acf83" d="M0 220.3a44 44 0 0 1 44.1-44.1h44.1v44.1a44.1 44.1 0 0 1-88.2 0"/><path fill="#ff7262" d="M88.1 0v88.1h44.1a44.1 44.1 0 0 0 0-88.2H88.1z"/><path fill="#f24e1e" d="M0 44.1a44 44 0 0 0 44.1 44.1h44.1V0H44.1A44 44 0 0 0 0 44.1"/><path fill="#a259ff" d="M0 132.2a44 44 0 0 0 44.1 44.1h44.1V88.1H44.1A44 44 0 0 0 0 132.2"/></svg>