<svg xmlns="http://www.w3.org/2000/svg" width="117.9" height="32" viewBox="0 0 512 139"><path fill="#11110F" d="M98.7 59.3h-43a2 2 0 0 0-2 2v21q.1 1.9 2 2h16.7v26.3s-3.7 1.2-14.2 1.2c-12.3 0-29.5-4.5-29.5-42.3s18-42.7 34.7-42.7c14.6 0 20.9 2.5 24.8 3.8 1.3.4 2.4-.9 2.4-2l4.9-20.3q0-1-.8-1.6C93 5.5 83.2 0 58.2 0 29.5 0 0 12.2 0 71s33.8 67.6 62.2 67.6c23.6 0 37.9-10 37.9-10q.7-.8.6-1.6V61.3a2 2 0 0 0-2-2m221.8-52a2 2 0 0 0-2-2h-24.2a2 2 0 0 0-2 2v47h-37.8v-47a2 2 0 0 0-2-2h-24.3a2 2 0 0 0-2 2v127c0 1 1 2 2 2h24.3c1 0 2-1 2-2V80h37.7v54.2q.2 1.9 2 2h24.3q1.8-.1 2-2zm-176.1 17c0-8.7-7-15.8-15.7-15.8s-15.6 7-15.6 15.8c0 8.7 7 15.8 15.6 15.8s15.7-7 15.7-15.8m-2 83.2V49a2 2 0 0 0-2-2h-24.1c-1.1 0-2.1 1-2.1 2.2v84c0 2.4 1.5 3.1 3.5 3.1h21.8c2.4 0 3-1.2 3-3.2zM413.2 47H389a2 2 0 0 0-2 2v62.2s-6.1 4.5-14.8 4.5-11-4-11-12.5V49a2 2 0 0 0-2-2H335a2 2 0 0 0-2 2v58.3c0 25.3 14 31.4 33.4 31.4 15.9 0 28.7-8.7 28.7-8.7s.6 4.6.9 5.1q.5 1 1.7 1.1h15.6c1 0 2-1 2-2V49a2 2 0 0 0-2-2m55.4 68.7c-8.3-.2-14-4-14-4V71.5s5.6-3.4 12.4-4c8.7-.8 17 1.8 17 22.5 0 21.8-3.7 26-15.4 25.7m9.5-71.5c-13.7 0-23 6.1-23 6.1v-43a2 2 0 0 0-2-2h-24.3a2 2 0 0 0-2 2v127c0 1 1 2 2 2h16.9q1 0 1.7-1.1c.5-.7 1-5.9 1-5.9s10 9.5 28.8 9.5c22.1 0 34.8-11.3 34.8-50.4s-20.2-44.2-34-44.2m-265.8 2.5H194v-24q0-1.5-1.5-1.4h-24.8q-1.5 0-1.5 1.4v24.8L153 50.8a2 2 0 0 0-1.5 1.9v15.6c0 1.1 1 2 2 2h12.7V108c0 27.8 19.6 30.6 32.8 30.6 6 0 13.2-2 14.4-2.4q1.1-.5 1.2-1.8V117c0-1.1-1-2-2-2-1.1 0-3.8.4-6.6.4-9 0-12-4.1-12-9.5V70.3h18.2a2 2 0 0 0 2-2V48.8a2 2 0 0 0-2-2"/></svg>