<svg xmlns="http://www.w3.org/2000/svg" width="97.5" height="32" viewBox="0 0 512 168"><path fill="#FF302F" d="m496 102.7 14.3 9.4a42 42 0 0 1-34.7 18.5A40.7 40.7 0 0 1 434.3 89c0-24.8 17.8-41.6 39.3-41.6 21.6 0 32.2 17.1 35.6 26.4l1.9 4.8-55.7 23a21 21 0 0 0 20.2 12.6c9.3 0 15.8-4.6 20.5-11.5m-43.7-15 37.2-15.5c-2-5.2-8.2-8.8-15.5-8.8-9.3 0-22.2 8.2-21.7 24.3"/><path fill="#20B15A" d="M407.4 5h18v121.8h-18z"/><path fill="#3686F7" d="M379.1 50.6h17.3v74c0 30.7-18 43.4-39.5 43.4a40 40 0 0 1-36.9-24.6l15.9-6.7c2.9 6.8 9.8 14.9 21 14.9 13.8 0 22.2-8.6 22.2-24.5v-6h-.6c-4.1 5-12 9.5-22 9.5A41 41 0 0 1 316.8 89c0-23.5 19-41.8 39.9-41.8a29 29 0 0 1 21.9 9.3h.6zm1.3 38.5c0-14.7-9.8-25.4-22.3-25.4S335 74.4 335 89c0 14.5 10.5 25 23.1 25 12.5.1 22.3-10.5 22.3-25"/><path fill="#FF302F" d="M218.2 88.8a41 41 0 0 1-41.6 41.6A41 41 0 0 1 135 88.8 41 41 0 0 1 176.6 47a41 41 0 0 1 41.6 41.7m-18.2 0c0-15-10.8-25.2-23.4-25.2s-23.4 10.2-23.4 25.2c0 14.8 10.8 25.2 23.4 25.2S200 103.6 200 88.8"/><path fill="#FFBA40" d="M309.1 89a41 41 0 0 1-41.6 41.6A41 41 0 0 1 225.9 89a41 41 0 0 1 41.6-41.6A41 41 0 0 1 309 89m-18 0c0-15-10.9-25.3-23.5-25.3S244 74 244 89c0 14.8 10.8 25.2 23.4 25.2 12.7 0 23.5-10.5 23.5-25.2"/><path fill="#3686F7" d="M66.6 112.3c-26.1 0-46.5-21-46.5-47.1a46.6 46.6 0 0 1 78.4-34.5L111.1 18A62 62 0 0 0 66.6.3 66 66 0 0 0 .7 65.2a66 66 0 0 0 65.9 64.9c19.3 0 33.9-6.4 45.3-18.2a59 59 0 0 0 15.3-41.5 76 76 0 0 0-1-11.6H66.5V76H109a38 38 0 0 1-9.7 23.3 43 43 0 0 1-32.7 13"/></svg>