<svg xmlns="http://www.w3.org/2000/svg" width="79.9" height="32" viewBox="0 0 512 205"><path d="M99.6 190v14.3H0V190zm155.5 0a54 54 0 0 1-36.6 14.3l-104.7-.2v-14Zm148 0-4.9 14.3-5-14.2zm-47.5 0v14.3h-71.2V190zm156.4 0v14.3h-71.1V190zm-240.8-27a54 54 0 0 1-5.7 14.1H113.8V163Zm141.5 0-5 14.1h-19l-5-14.2zm-57.1 0v14h-71.2v-14zm156.4 0v14h-71.1v-14zm-412.4 0v14H0v-14zM71 135.7V150H28.4v-14.2zm113.8 0V150h-42.7v-14.2zm86 0a54 54 0 0 1 2 14.2h-48v-14.2Zm151.3 0-5 14.2h-38l-5-14.2zm-66.6 0V150h-42.7v-14.2zm128 0V150h-42.7v-14.2zM71 108.6v14.2H28.4v-14.2zm284.5 0v14.2h-42.7v-14.2zm128 0v14.2h-42.7v-14.2zm-230 0a55 55 0 0 1 12 14.2H142.1v-14.2Zm178.2 0-5 14.2h-57.1l-5-14.2zm-37.6-27.1 4 11.5 4-11.5h81.4v14.2h-42.7v-13l-4.6 13H360l-4.5-13v13h-42.7V81.5zm-252 0h123.3a55 55 0 0 1-11.9 14.2H142.2zm-71 0v14.2H28.3V81.5zm0-27.2v14.2H28.3V54.3zm113.7 0v14.2h-42.7V54.3zm88 0a54 54 0 0 1-2 14.2h-46V54.3Zm111.9 0 5 14.2h-77V54.3zm98.8 0v14.2h-76.9l5-14.2zm-384-27.1v14.2H0V27.2zm166 0a54 54 0 0 1 5.6 14.2H113.8V27.2Zm246.4 0v14.2h-95.8l4.9-14.2zm-136.7 0 5 14.2h-95.9V27.2zM99.6 0v14.2H0V0zm119 0A54 54 0 0 1 255 14.2H113.8V0ZM512 0v14.2h-86.4l5-14.2zM365.9 0l5 14.2h-86.5V0z"/></svg>