<svg xmlns="http://www.w3.org/2000/svg" viewBox="0 0 425 425"><rect width="425" height="425" rx="80" ry="80" style="fill:#f56e0f;stroke-width:0"/><path d="M251.038 82.205c18.309-26.533 39.469-38.58 62.939-36.965l-98.98 172.6a34.27 34.27 0 0 1-12.543 16.513c-5.373 3.529-8.288 3.109-13.622 5.018a19.15 19.15 0 0 0-11.041 9.501l-1.837 5.858c-1.651 5.228-4.253 10.457-.361 15.557 2.567 3.354 7.437 4.601 13.876 4.38a40.8 40.8 0 0 1 15.525 6.734 47.5 47.5 0 0 1 11.977 12.975c9.185 17.824 9.798 37.48-3.079 60.112-14.176 26.673-33.898 35.92-56.562 35.584-14.686-1.974-24.756-8.724-30.976-19.404-9.558-16.41-9.405-34.118-3.193-51.487a195.4 195.4 0 0 1 17.09-33.527l17.47-43.785 1.707 1.614zM339.275 233.7c32.112-2.834 53.032-15.295 63.207-36.507l-164.436.777-20.973 35.819zm-174.199-19.411a19.6 19.6 0 0 1-6.858.925l-6.002-1.292c-5.362-1.144-11.195-1.461-13.711-7.362-1.664-3.911-.345-8.761 3.038-14.231a40.95 40.95 0 0 0 1.699-16.95 47.4 47.4 0 0 0-5.31-16.705c-10.973-16.783-27.78-27.037-53.806-26.98-30.042-.673-47.882 11.805-58.772 31.684-5.627 13.683-4.671 25.864 1.51 36.476 9.49 16.295 25.035 25.013 43.195 28.156a193.7 193.7 0 0 0 37.594 1.677l45.314 6.234.908-1.603-.103-.492.382.023zm-43.168-24.367c5.558-11.064.734-21.453-8.039-28.927-7.028-6.005-16.48-9.217-28.097-9.664a56.66 56.66 0 0 0-33.006 9.31c-18.316 13.032-11.852 32.349 5.283 42.534a45.27 45.27 0 0 0 26.129 6.022 64.1 64.1 0 0 0 20.551-4.45 32.25 32.25 0 0 0 17.193-14.802zm81.225 22.306a9.494 9.494 0 0 1-10.641 13.956 9.497 9.497 0 0 1-2.32-17.396 9.48 9.48 0 0 1 7.194-.97 9.475 9.475 0 0 1 5.767 4.41Zm-21.247 80.669c12.365.625 19.008 9.923 21.181 21.242 1.77 9.099-.113 18.882-5.39 29.322a56.87 56.87 0 0 1-24.463 23.978c-20.384 9.479-33.998-5.674-34.403-25.604a45.1 45.1 0 0 1 7.667-25.675 63.5 63.5 0 0 1 14.01-15.681 32.26 32.26 0 0 1 21.371-7.628z" style="fill:#fff;opacity:.8;stroke:#fff;stroke-miterlimit:10;fill-rule:evenodd"/></svg>