<svg xmlns="http://www.w3.org/2000/svg" xml:space="preserve" style="fill-rule:evenodd;clip-rule:evenodd;stroke-linejoin:round;stroke-miterlimit:2" viewBox="0 0 491 491"><path d="M490.2 84.6c0-46.7-38-84.6-84.6-84.6h-321C38 0 0 38 0 84.6v321c0 46.6 38 84.6 84.6 84.6h321c46.6 0 84.6-38 84.6-84.6z" style="fill:#ff3670"/><path d="M407.5 111.2c-72-3.1-138 41.1-162.4 108.8A166 166 0 0 0 82.7 111.2a166 166 0 0 0 72 143.6 89 89 0 0 1 38.6 73.5V379h103.6v-50.8a89 89 0 0 1 38.5-73.5 166 166 0 0 0 72-143.6" style="fill:#fff;fill-rule:nonzero"/></svg>