<svg xmlns="http://www.w3.org/2000/svg" width="157.5" height="32" viewBox="0 0 512 104"><defs><linearGradient id="logosMeta0" x1="13.9%" x2="89.1%" y1="55.9%" y2="58.7%"><stop offset="0%" stop-color="#0064E1"/><stop offset="40%" stop-color="#0064E1"/><stop offset="83%" stop-color="#0073EE"/><stop offset="100%" stop-color="#0082FB"/></linearGradient><linearGradient id="logosMeta1" x1="54.3%" x2="54.3%" y1="82.8%" y2="39.3%"><stop offset="0%" stop-color="#0082FB"/><stop offset="100%" stop-color="#0064E0"/></linearGradient></defs><path fill="#0081FB" d="M16.8 68a26 26 0 0 0 3 13.3c2.2 3.6 5.5 5.1 9 5.1 4.3 0 8.3-1 16-11.8 6.2-8.5 13.5-20.5 18.4-28l8.3-12.8a122 122 0 0 1 20-25.3Q101 0 111.3 0c11.4 0 22.2 6.6 30.5 19a87 87 0 0 1 13.5 48.2c0 10.4-2 18.1-5.6 24.2a23 23 0 0 1-21 11.8V86.4c9.4 0 11.8-8.7 11.8-18.8 0-14.2-3.3-30-10.6-41.4-5.2-8-12-13-19.4-13-8 0-14.5 6.1-21.7 17Q83 38.7 76.5 50.6l-4.9 8.7a219 219 0 0 1-17.2 28c-8.6 11.4-16 15.8-25.7 15.8A25 25 0 0 1 5.5 90.6 45 45 0 0 1 0 67.4z"/><path fill="url(#logosMeta0)" d="M13.2 20.1C21 8.3 32 0 44.7 0a34 34 0 0 1 22.4 8.4c8.4 6.9 17.3 18.1 28.4 36.7l4 6.6c9.7 16 15.1 24.3 18.3 28.2 4.2 5 7 6.5 10.8 6.5 9.5 0 12-8.7 12-18.8l14.7-.4c0 10.4-2 18.1-5.6 24.2a23 23 0 0 1-21 11.8c-7 0-13.1-1.5-19.9-8a110 110 0 0 1-16-21.4L79 50.6c-7-11.7-13.4-20.4-17.1-24.4-4-4.2-9.1-9.3-17.3-9.3-6.7 0-12.3 4.6-17 11.7z"/><path fill="url(#logosMeta1)" d="M44.5 16.9c-6.7 0-12.3 4.6-17 11.7-6.6 10-10.7 25-10.7 39.4a26 26 0 0 0 3 13.3L5.5 90.7A45 45 0 0 1 0 67.4c0-16.6 4.6-33.9 13.2-47.3C21 8.3 32 0 44.7 0z"/><path fill="#192830" d="M188 3.3h19.3l33 59.7 33-59.7h19v98h-15.8V26.2l-29 52h-14.8l-29-52v75.1H188zm153.9 36.5c-11.4 0-18.2 8.6-19.8 19.2h38.5c-.8-11-7-19.2-18.7-19.2M306.4 65c0-22.3 14.4-38.5 35.8-38.5 21 0 33.6 16 33.6 39.7v4.3h-53.7c1.9 11.5 9.5 19.3 21.8 19.3 9.9 0 16-3 21.8-8.5l8.4 10.3a44 44 0 0 1-30.7 11.5c-23.2 0-37-17-37-38.1M395 41.2h-14.6v-13H395V6.9h15.3v21.5h22.1v13h-22.1V74c0 11.2 3.6 15.2 12.4 15.2 4 0 6.3-.4 9.7-1v12.9a46 46 0 0 1-12.7 1.8Q395 103 395 76zm101.7 12.6c-3-7.7-9.9-13.4-20-13.4-13 0-21.4 9.3-21.4 24.4 0 14.7 7.7 24.4 20.8 24.4 10.3 0 17.7-6 20.6-13.4zm15.3 47.5h-15V91.1c-4.2 6-11.8 12-24.2 12-19.8 0-33.1-16.6-33.1-38.3 0-22 13.6-38.3 34-38.3q15.2.2 23.3 11.2v-9.4h15z"/></svg>