<svg xmlns="http://www.w3.org/2000/svg" width="148.9" height="32" viewBox="0 0 512 110"><path fill="#706D6E" d="M512 49.4v-9h-11.2v-14l-.4.2-10.5 3.2h-.2v10.6h-16.5v-5.9q0-4 1.8-6.2 1.9-2.1 5.1-2.1 2.4 0 4.9 1l.4.3V18h-.2a19 19 0 0 0-6.2-1q-5 0-8.8 2.2a15 15 0 0 0-6 6 18 18 0 0 0-2.2 8.7v6.5h-7.8v9h7.8v38h11.2v-38h16.5v24.2q0 15 14 15a23 23 0 0 0 4.7-.6q2.5-.6 3.5-1.1h.1v-9.2l-.5.3q-.9.7-2.2 1t-2.2.4q-3.3 0-4.8-1.8-1.5-1.7-1.5-6V49.4zm-82.8 30q-6 0-9.5-4a17 17 0 0 1-3.4-11.3q0-7.5 3.4-11.6t9.4-4 9.2 3.8q3.3 4 3.4 11.5 0 7.7-3.2 11.7-3 3.9-9.3 3.9m.5-40q-11.6 0-18.2 6.7a25 25 0 0 0-6.6 18.4 24 24 0 0 0 6.4 17.5 23 23 0 0 0 17.3 6.5q11.2 0 18-6.8a25 25 0 0 0 6.5-18.2q0-11.3-6.2-17.7a23 23 0 0 0-17.2-6.5m-42.9 0q-7.9 0-13 4t-5 10.4q0 3.4 1.1 5.8 1.2 2.6 3.4 4.4a29 29 0 0 0 6.8 3.8q3.8 1.6 5.6 2.6t2.5 2 .7 2.7q0 4.8-7.2 4.7-2.7 0-6.1-1a23 23 0 0 1-6.3-3.3l-.5-.3V86h.2q2.4 1.2 6 1.9 3.4.7 6.3.7 8.6 0 13.6-4a13 13 0 0 0 5.1-10.7q0-4.7-2.7-8t-9.3-6a24 24 0 0 1-6.6-3.4Q380 55 380 52.8a4 4 0 0 1 1.7-3.4 8 8 0 0 1 4.8-1.3 20 20 0 0 1 10.6 3.2l.4.3V41.4l-.1-.1q-2-.9-5-1.4-3.2-.6-5.6-.6m-47 40q-6.2 0-9.6-4a17 17 0 0 1-3.4-11.2q0-7.5 3.4-11.6t9.4-4 9.2 3.8q3.3 4 3.3 11.5 0 7.7-3.1 11.7-3 3.9-9.3 3.9m.5-40q-11.6 0-18.3 6.7a25 25 0 0 0-6.6 18.4 24 24 0 0 0 6.5 17.5 23 23 0 0 0 17.3 6.5q11.3 0 17.9-6.8a25 25 0 0 0 6.6-18.2q0-11.3-6.2-17.7a23 23 0 0 0-17.2-6.5m-41.8 9.3v-8.2h-11v47h11v-24q0-6.2 2.7-10a8 8 0 0 1 7.2-3.8 13 13 0 0 1 5.9 1.6l.4.3V40.4l-.2-.1q-1.5-.6-4.3-.7-4.1 0-7.4 2.7a15 15 0 0 0-4.2 6.3zm-30.8-9.3q-7.7 0-13.5 3.2a22 22 0 0 0-8.8 9.1 29 29 0 0 0-.1 25.6q3 5.4 8.2 8.4 5.4 3 12.1 3 8 0 13.3-3.2h.2V75.1l-.5.3a21 21 0 0 1-5.4 2.8q-3 1-5.3 1-6.5 0-10.3-4a16 16 0 0 1-3.8-11.1q0-7.2 4-11.5 3.9-4.2 10.3-4.2 5.5 0 10.5 3.6l.5.3V41.8l-.2-.1q-1.9-1-5-1.7-3.3-.7-6.2-.7m-33 1.1h-11v47h11zm-5.4-20q-2.7 0-4.7 1.9a6 6 0 0 0-2 4.6 6 6 0 0 0 2 4.5 7 7 0 0 0 4.7 1.8q2.8 0 4.8-1.8t2-4.5-2-4.6a7 7 0 0 0-4.8-1.9M201.7 37v50.4h11.2V21.9h-15.6l-19.8 48.6L158.3 22H142v65.5h10.5V37h.4l20.3 50.4h8l20-50.4z"/><path fill="#F1511B" d="M52 52H0V0h52z"/><path fill="#80CC28" d="M109.3 52h-52V0h52z"/><path fill="#00ADEF" d="M52 109.3H0v-52h52z"/><path fill="#FBBC09" d="M109.3 109.3h-52v-52h52z"/></svg>