<svg xmlns="http://www.w3.org/2000/svg" width="99.3" height="32" viewBox="0 0 512 165"><path d="M0 0h512v164.2H0zm145 123.8v-14.6h-9v-31c0-16-11.2-23.4-23.3-23.4a23 23 0 0 0-22 14.6c-3.4-10-12.4-14.6-22.1-14.6C59 54.8 52 59.2 48 66.4V56.2H19v14.7h9.7v38.3h-9v14.7h41.2v-14.7H48.1V85.6c0-9.5 3.7-16 13-16 7.7 0 11.6 4.4 11.6 16.1V124H101v-14.7h-9V85.6c0-9.5 3.8-16 13-16 7.7 0 11.6 4.4 11.6 16.1v38.1zm43 1.5c21.6 0 37.2-13.6 37.2-35.2 0-19-11.9-35.3-36.2-35.3S152.7 71.2 152.7 91c0 21.6 14.4 34.3 35.3 34.3m.7-55.6c9.2 0 16.5 6.1 16.6 19.8 0 12.9-6.6 21-16.7 21-10.5 0-16-9-16-20.7 0-12.8 6.2-20.1 16.1-20.1m107 54.1 4.2-23.7-15.3-1.5-3.2 10.6h-21.8L297 66.4l-1.5-10.2H236l-2.4 23.7 14 1.5 3-10.5h21.1l-37.2 42.7 2 10.2zm36.6-43.3V56.2h-20.2v24.3zm0 43.3V99.5h-20.2v24.3zm10.6 0H362l29.3-103.1h-19zm39.3 0h19.1l29.3-103.1h-19zm100.9 1.5a26 26 0 0 0 12.2-3.1l-.2-10.3q-1.4.5-2.8.5c-3.2 0-4.7-1.4-4.7-5.3V77.7c0-15.4-12.3-23-26.8-23a65 65 0 0 0-29 6.3l-3 17.5 15.5 1.7 2.5-9.6a21 21 0 0 1 10.3-2c11 0 11.1 8.3 11.1 15.2V86a89 89 0 0 0-11-.6c-15.5 0-31.6 4-31.6 20.6 0 14 11.1 19.3 20.9 19.3 11 0 17.8-6.6 21.7-13.5 1 8.3 5.9 13.5 14.9 13.5m-37.5-21.6c0-7.3 6-9.3 13-9.3a72 72 0 0 1 9.6 1c-.4 11.2-7.7 16.1-14.7 16.1-5.8 0-8-3.4-8-7.8"/></svg>