<svg xmlns="http://www.w3.org/2000/svg" width="32" height="32" viewBox="0 0 128 128"><path fill="url(#deviconNodejs0)" d="M67 .8a6 6 0 0 0-6 0l-50 29A6 6 0 0 0 8 35v58a6 6 0 0 0 3 5.2l49.8 29a6 6 0 0 0 6 0l49.9-29a6 6 0 0 0 3-5.2V35a6 6 0 0 0-3-5.2z"/><path fill="url(#deviconNodejs1)" d="m116.9 29.8-50-29-1.6-.6-56 96.6 1.6 1.4 50 29q2.2 1.2 4.6.6l52.7-97z"/><path fill="url(#deviconNodejs2)" d="M116.9 98.2a7 7 0 0 0 3-3.8L65 .1a6 6 0 0 0-4.3.7L11.1 29.6 64.7 128q1.2-.2 2.3-.7z"/><defs><linearGradient id="deviconNodejs0" x1="34.5" x2="27.2" y1="15.5" y2="30.4" gradientTransform="translate(-129.2 -73.7)scale(6.18523)" gradientUnits="userSpaceOnUse"><stop stop-color="#3F873F"/><stop offset=".3" stop-color="#3F8B3D"/><stop offset=".6" stop-color="#3E9638"/><stop offset=".9" stop-color="#3DA92E"/><stop offset="1" stop-color="#3DAE2B"/></linearGradient><linearGradient id="deviconNodejs1" x1="30" x2="50.5" y1="23.4" y2="8.3" gradientTransform="translate(-129.2 -73.7)scale(6.18523)" gradientUnits="userSpaceOnUse"><stop offset=".1" stop-color="#3F873F"/><stop offset=".4" stop-color="#52A044"/><stop offset=".7" stop-color="#64B749"/><stop offset=".9" stop-color="#6ABF4B"/></linearGradient><linearGradient id="deviconNodejs2" x1="21.9" x2="40.6" y1="22.3" y2="22.3" gradientTransform="translate(-129.2 -73.7)scale(6.18523)" gradientUnits="userSpaceOnUse"><stop offset=".1" stop-color="#6ABF4B"/><stop offset=".3" stop-color="#64B749"/><stop offset=".6" stop-color="#52A044"/><stop offset=".9" stop-color="#3F873F"/></linearGradient></defs></svg>