<svg xmlns="http://www.w3.org/2000/svg" viewBox="0 0 512 126"><path d="M365.1 49q-11.4 0-15.5 7.5l-1.4 2.7v-8.9h-12.3V104h12.9V72c0-7.6 4.1-12 11.3-12 7 0 10.9 4.3 10.9 11.7V104h12.9V69.4c0-12.7-7-20.3-18.8-20.3m-62.5 0c-15.3 0-24.7 9.5-24.7 24.8v7.5c0 14.7 9.6 23.8 25 23.8q15.2.1 22-11.5l-8-4.6a18 18 0 0 1-14 7.2c-7.9 0-12.5-4.7-12.5-12.8v-2.1h36v-9c0-14.2-9.3-23.3-23.8-23.3m12 23.6h-24.2v-1.3c0-8.8 4.3-13.7 12.2-13.7 7.5 0 12 4.8 12 12.9zM512 41.5V31.3h-44.6v10.2H483v52.2h-15.6v10.2H512V93.7h-15.7V41.5zM173.6 29.8c-19.9 0-32.3 12.4-32.3 32.4V73c0 20 12.4 32.4 32.3 32.4 20 0 32.4-12.4 32.4-32.4V62.2c0-20-12.4-32.4-32.4-32.4m19 44c0 13.2-6.9 20.9-19 20.9s-19-7.7-19-21V61.6c0-13.3 7-21 19-21s19 7.7 19 21zM246.5 49c-6.8 0-12.7 2.8-15.7 7.5l-1.4 2.1v-8.4h-12.3v72.1h13v-26l1.3 2c3 4.4 8.6 7 15.2 7 11.1 0 22.3-7.3 22.3-23.6v-9.1C269 60.9 262 49 246.5 49m9.5 32c0 8.6-5 14-13.1 14-7.6 0-12.8-5.7-12.8-13.8v-8c0-8.3 5.3-14 12.9-14 8 0 13 5.3 13 14zm163.5-49.8-26 72.7h13.1l5-15.6h30v.1l5 15.5h13l-26-72.7zM414.8 78l11.7-36.7L438.2 78zM116.1 51.6a31 31 0 0 0-2.7-25.8 32 32 0 0 0-34.2-15.2A31 31 0 0 0 55.5 0a32 32 0 0 0-30.2 22 31 31 0 0 0-21 15.2 32 32 0 0 0 3.9 37.2 31 31 0 0 0 2.7 25.8A32 32 0 0 0 45 115.4 31 31 0 0 0 68.7 126 32 32 0 0 0 99 104a31 31 0 0 0 21-15.2 32 32 0 0 0-4-37.2m-47.3 66.2a24 24 0 0 1-15-5.5l.7-.4 25-14.5a4 4 0 0 0 2.1-3.6V58.5l10.6 6 .2.4V94c0 13-10.5 23.7-23.6 23.7M18 96a24 24 0 0 1-2.8-15.8l.7.4L41 95.2a4 4 0 0 0 4.2 0l30.6-17.7v12.3l-.2.3-25.3 14.6A23.6 23.6 0 0 1 18 96.1zm-6.6-54.8A24 24 0 0 1 23.7 31v29.8a4 4 0 0 0 2 3.6L56.5 82l-10.6 6.1h-.4L20.1 73.6a23.6 23.6 0 0 1-8.7-32.3zm87.1 20.3L68 44l10.6-6.1h.4l25.3 14.6a23.6 23.6 0 0 1-3.6 42.6V65.2a4 4 0 0 0-2-3.6zm10.6-15.9-.7-.4-25.1-14.5a4 4 0 0 0-4.2 0L48.5 48.5V36.2l.2-.3L74 21.3a23.6 23.6 0 0 1 35 24.4zM42.7 67.5l-10.6-6-.2-.4V32a23.6 23.6 0 0 1 38.7-18.2l-.7.4-25.1 14.5a4 4 0 0 0-2 3.6zm5.8-12.4 13.6-7.8L75.8 55v16L62 78.7 48.5 71z"/></svg>