<svg width="605" height="194" viewBox="0 0 605 194" fill="none" xmlns="http://www.w3.org/2000/svg">
<path fill-rule="evenodd" clip-rule="evenodd" d="M2.20316 123.139C0.281957 126.272 0.311691 130.226 2.2798 133.331L37.902 189.524C40.214 193.171 44.6703 194.834 48.8063 193.593L151.604 162.754C157.214 161.071 160.036 154.813 157.584 149.494L91.5009 6.14463C88.2782 -0.846183 78.563 -1.42002 74.5397 5.14279L2.20316 123.139ZM89.7451 38.9158C88.3406 35.6658 83.5845 36.1664 82.8873 39.6375L57.4457 166.316C56.9092 168.987 59.4101 171.268 62.0207 170.489L133.045 149.287C135.118 148.669 136.186 146.379 135.328 144.393L89.7451 38.9158Z" fill="#4C51BF"/>
<path fill-rule="evenodd" clip-rule="evenodd" d="M220.059 96.9051H226.32C232.172 96.9051 236.547 95.75 239.454 93.4376C242.36 91.1252 243.812 87.7595 243.812 83.3406C243.812 78.8827 242.594 75.5885 240.16 73.4603C237.724 71.3321 233.91 70.268 228.713 70.268H220.059V96.9051ZM263.023 82.6665C263.023 92.3235 260.006 99.7072 253.968 104.822C247.935 109.939 239.353 112.494 228.224 112.494H220.06V144.41H201.034V54.6792H229.695C240.581 54.6792 248.856 57.0219 254.523 61.7053C260.19 66.3908 263.023 73.3778 263.023 82.6665V82.6665Z" fill="#4C51BF"/>
<path fill-rule="evenodd" clip-rule="evenodd" d="M313.458 74.501C315.996 74.501 318.103 74.6852 319.78 75.0536L318.369 92.6058C316.854 92.1984 315.015 91.9925 312.845 91.9925C306.87 91.9925 302.217 93.5269 298.88 96.5956C295.547 99.6644 293.88 103.962 293.88 109.486V144.408H275.16V75.7905H289.338L292.101 87.3287H293.02C295.148 83.484 298.021 80.3828 301.645 78.0292C305.264 75.6778 309.202 74.501 313.458 74.501" fill="#4C51BF"/>
<path fill-rule="evenodd" clip-rule="evenodd" d="M329.708 144.409H348.428V75.7911H329.708V144.409ZM328.914 58.0516C328.914 51.9553 332.31 48.9082 339.102 48.9082C345.892 48.9082 349.29 51.9553 349.29 58.0516C349.29 60.9579 348.441 63.2183 346.744 64.835C345.045 66.4517 342.498 67.2579 339.102 67.2579C332.31 67.2579 328.914 64.1892 328.914 58.0516V58.0516Z" fill="#4C51BF"/>
<path fill-rule="evenodd" clip-rule="evenodd" d="M414.336 124.03C414.336 131.069 411.891 136.429 407 140.111C402.11 143.793 394.796 145.635 385.059 145.635C380.066 145.635 375.814 145.297 372.294 144.621C368.775 143.947 365.48 142.954 362.412 141.645V126.178C365.89 127.816 369.806 129.186 374.167 130.291C378.523 131.394 382.359 131.947 385.672 131.947C392.464 131.947 395.862 129.984 395.862 126.057C395.862 124.583 395.412 123.387 394.512 122.466C393.611 121.544 392.057 120.502 389.846 119.334C387.638 118.168 384.69 116.809 381.008 115.253C375.731 113.045 371.852 110.999 369.379 109.116C366.902 107.234 365.101 105.076 363.979 102.64C362.852 100.206 362.288 97.2089 362.288 93.6482C362.288 87.5519 364.65 82.8382 369.379 79.5029C374.104 76.1676 380.803 74.501 389.478 74.501C397.744 74.501 405.784 76.3019 413.599 79.9016L407.953 93.4033C404.516 91.9296 401.302 90.7247 398.316 89.7819C395.329 88.8414 392.28 88.3711 389.172 88.3711C383.648 88.3711 380.885 89.8643 380.885 92.8507C380.885 94.5303 381.778 95.9823 383.555 97.2089C385.336 98.4356 389.233 100.258 395.247 102.672C400.609 104.842 404.538 106.866 407.032 108.747C409.527 110.63 411.369 112.798 412.556 115.253C413.744 117.709 414.336 120.634 414.336 124.03" fill="#4C51BF"/>
<path fill-rule="evenodd" clip-rule="evenodd" d="M488.494 144.408H469.774V104.33C469.774 99.3805 468.944 95.6659 467.29 93.1909C465.63 90.716 463.023 89.4764 459.462 89.4764C454.677 89.4764 451.199 91.2361 449.029 94.7557C446.86 98.2752 445.776 104.064 445.776 112.126V144.408H427.056V75.7905H441.358L443.874 84.5676H444.918C446.758 81.4165 449.42 78.9502 452.896 77.171C456.374 75.3917 460.364 74.501 464.865 74.501C475.136 74.501 482.09 77.858 485.733 84.5676H487.389C489.231 81.3753 491.942 78.9004 495.522 77.1406C499.103 75.3809 503.142 74.501 507.644 74.501C515.417 74.501 521.301 76.497 525.289 80.4846C529.279 84.4744 531.273 90.8677 531.273 99.6644V144.408H512.492V104.33C512.492 99.3805 511.662 95.6659 510.008 93.1909C508.348 90.716 505.741 89.4764 502.18 89.4764C497.599 89.4764 494.172 91.1148 491.899 94.3872C489.63 97.6619 488.494 102.857 488.494 109.976V144.408Z" fill="#4C51BF"/>
<path fill-rule="evenodd" clip-rule="evenodd" d="M585.75 112.616L578.507 112.861C573.065 113.026 569.015 114.007 566.355 115.808C563.694 117.609 562.366 120.349 562.366 124.033C562.366 129.31 565.393 131.95 571.448 131.95C575.785 131.95 579.255 130.701 581.851 128.205C584.449 125.71 585.75 122.397 585.75 118.262V112.616ZM591.273 144.408L587.652 135.078H587.16C584.009 139.048 580.767 141.799 577.431 143.333C574.098 144.867 569.751 145.635 564.391 145.635C557.801 145.635 552.617 143.753 548.831 139.989C545.047 136.225 543.155 130.865 543.155 123.908C543.155 116.627 545.701 111.256 550.794 107.797C555.891 104.341 563.572 102.427 573.842 102.059L585.749 101.69V98.6821C585.749 91.7276 582.188 88.2492 575.069 88.2492C569.586 88.2492 563.141 89.905 555.735 93.2208L549.537 80.5773C557.434 76.4445 566.192 74.377 575.806 74.377C585.012 74.377 592.071 76.3838 596.982 80.3931C601.89 84.4024 604.346 90.4988 604.346 98.6821V144.408H591.273Z" fill="#4C51BF"/>
</svg>
