<svg width="159" height="194" viewBox="0 0 159 194" fill="none" xmlns="http://www.w3.org/2000/svg">
<path fill-rule="evenodd" clip-rule="evenodd" d="M2.39749 123.139C0.476293 126.272 0.506027 130.226 2.47414 133.331L38.0964 189.524C40.4083 193.171 44.8647 194.834 49.0006 193.593L151.798 162.754C157.408 161.071 160.23 154.813 157.778 149.494L91.6953 6.14463C88.4726 -0.846183 78.7573 -1.42002 74.734 5.14279L2.39749 123.139ZM89.9395 38.9158C88.535 35.6658 83.7788 36.1664 83.0817 39.6375L57.64 166.316C57.1035 168.987 59.6044 171.268 62.215 170.489L133.24 149.287C135.313 148.669 136.381 146.379 135.522 144.393L89.9395 38.9158Z" fill="#4C51BF"/>
</svg>
