<svg xmlns="http://www.w3.org/2000/svg" xmlns:xlink="http://www.w3.org/1999/xlink" viewBox="0 0 273 191"><desc>A cloud computing company based in San Francisco, California, United States</desc><defs><path id="a" d="M0 .5h272v190H0z"/></defs><g fill-rule="evenodd"><mask id="b" fill="#fff"><use xlink:href="#a"/></mask><path fill="#00A1E0" d="M113 21.3a47.7 47.7 0 0 1 76.5 10.1 58 58 0 0 1 23.7-5 59 59 0 0 1 58.7 59.2 59 59 0 0 1-70.3 58 43 43 0 0 1-37.4 22 43 43 0 0 1-18.8-4.3 49 49 0 0 1-90.9-2.2 45 45 0 0 1-9.3 1 46.1 46.1 0 0 1-22.7-85.7 53 53 0 0 1-4.4-21 52.8 52.8 0 0 1 95-32" mask="url(#b)"/><path fill="#FFFFFE" d="M39.4 99.3q-.2.5.1.6l1.6 1q4 2 8.1 1.9c5.6 0 9-3 9-7.8 0-4.5-3.9-6.1-7.5-7.3l-.5-.1c-2.8-1-5.2-1.7-5.2-3.5V84q.1-2.5 3.6-2.7c2.4 0 5.3.8 7 1.8 0 0 .6.3.8-.2.1-.3 1-2.8 1.2-3q0-.5-.3-.7-3.3-2-8-2.1h-.6c-5 0-8.6 3-8.6 7.5 0 4.7 3.9 6.3 7.6 7.3l.6.2c2.7.8 5 1.5 5 3.4v.1c0 1.7-1.5 3-4 3-.9 0-3.9 0-7.1-2l-1-.6c-.1-.1-.5-.3-.7.2zm81.7 0q-.2.6.1.7l1.6 1q4 2 8.1 1.8c5.6 0 9-3 9-7.7V95c0-4.4-3.9-6-7.5-7.2l-.5-.1c-2.8-1-5.2-1.7-5.2-3.5V84q.2-2.5 3.6-2.7c2.4 0 5.2.8 7 1.8 0 0 .6.3.8-.2.1-.3 1-2.8 1.2-3q0-.5-.3-.7-3.3-2-8-2.1h-.6c-5 0-8.7 3-8.7 7.5 0 4.7 4 6.3 7.7 7.3l.6.2c2.6.8 5 1.5 5 3.4v.1c0 1.7-1.6 3-4 3-1 0-4 0-7.2-2l-.9-.6s-.6-.3-.7.2zm55.8-9.3q0 4.1-1.5 6.4-1.5 2.2-4.5 2.2c-3 0-3.6-.7-4.6-2.2Q165 94 165 89.9t1.4-6.3q1.5-2.2 4.6-2.2c3 0 3.5.8 4.5 2.2q1.5 2.3 1.5 6.3m4.6-5q-.6-2.3-2-4-1.5-1.7-3.7-2.7-2-1-5-1c-3 0-3.5.3-5 1a10 10 0 0 0-5.7 6.7 18 18 0 0 0 0 10q.7 2.4 2.2 4 1.4 1.8 3.5 2.8 2.3 1 5 1a12 12 0 0 0 5-1 10 10 0 0 0 3.6-2.7q1.5-1.7 2.1-4a18 18 0 0 0 0-10m38.3 12.7c-.1-.4-.6-.3-.6-.3a11 11 0 0 1-4.7.8 7 7 0 0 1-5.3-2q-2-2-2-6.3 0-4 1.8-6.2 1.7-2.2 5.1-2.2 2.8 0 5 .7.1.2.5-.4l1.2-3.1q0-.5-.3-.6a18 18 0 0 0-11.8 0 11 11 0 0 0-6 6.8q-.8 2.3-.8 5 0 5.8 3.1 9.3 3.1 3.4 9.2 3.4 3.8 0 6.6-1.2.2 0 .2-.5zm8.2-10.4a9 9 0 0 1 1.3-3.7 5 5 0 0 1 4.5-2.3q3 0 4.4 2.3 1 1.5 1 3.7zm15.7-3.3a9 9 0 0 0-5-6 12 12 0 0 0-4.6-.9q-3 0-5.2 1a10 10 0 0 0-5.7 7 18 18 0 0 0 0 10 10 10 0 0 0 6.3 6.6q2.3 1 5.7 1c4.5 0 7-1 8-1.6q.3-.1 0-.8l-1-2.9c-.1-.4-.6-.2-.6-.2-1.1.4-2.7 1.1-6.4 1.1q-3.7 0-5.4-1.8t-1.9-5.3h15.8s.4 0 .5-.4c0-.2.5-3.2-.5-6.8m-142 3.3a9 9 0 0 1 1.3-3.7 5 5 0 0 1 4.5-2.3q3 0 4.4 2.3 1 1.5 1 3.7zm15.7-3.3a10 10 0 0 0-5-6 12 12 0 0 0-4.6-.9q-3 0-5.2 1a10 10 0 0 0-5.7 7 18 18 0 0 0 0 10q.7 2.3 2.3 4t4 2.6 5.7 1c4.5 0 7-1 8-1.6 0-.1.3-.3 0-.8l-1-2.9c-.1-.4-.6-.2-.6-.2-1.1.4-2.7 1.1-6.5 1.1q-3.6 0-5.4-1.8-1.7-1.8-1.8-5.3h15.8s.4 0 .5-.4c0-.2.5-3.2-.5-6.8M67.6 97.6l-1-1q-.4-.5-.4-2 0-2 1.4-3s1.4-1.2 4.6-1.2l4.3.4V98s-2 .4-4.3.5c-3.2.2-4.6-.9-4.6-.9m6.3-11-2.5-.1q-2 0-3.9.5t-3.3 1.5A8 8 0 0 0 62 91q-.8 1.5-.8 3.6t.7 3.6a7 7 0 0 0 2 2.5q1.4 1 3.3 1.4t4.2.4 4.8-.4l4-.8 1-.2c.4-.1.4-.6.4-.6V86.2q0-4.7-2.5-7-2.5-2.1-7.3-2.1c-1.1 0-3 .2-4.2.4 0 0-3.4.7-4.8 1.8 0 0-.4.2-.2.6l1.1 3q.4.4.6.3l.2-.2c3-1.6 6.9-1.6 6.9-1.6q2.5 0 3.9 1 1.2.9 1.3 3.8v.7zm127-8.2a.4.4 0 0 0-.3-.6c-.2 0-1.6-.4-2.6-.4a8 8 0 0 0-6.7 2.6v-2q0-.4-.5-.4h-4q-.5 0-.5.5v23.5l.5.5h4.1l.5-.5V89.8q0-2.5.5-4.2a6 6 0 0 1 1.4-2.3 5 5 0 0 1 2-1.1l2-.3 1.8.2q.5 0 .6-.5z"/><path fill="#FFFFFE" d="m162.2 67.5-1.6-.3-2.1-.2a9 9 0 0 0-6.7 2.4 13 13 0 0 0-3.2 7.2l-.1 1h-3.6s-.5 0-.6.5l-.5 3.3q-.1.5.5.5h3.5l-3.6 19.7q-.4 2.5-1 4l-1 2.2a3 3 0 0 1-1.5 1 6 6 0 0 1-3 .2q-.6 0-1-.3-.2-.1-.5.3l-1.2 3.2q0 .4.3.6l1.4.4 2.3.3q2.3 0 3.9-.6 1.5-.6 2.9-2 1.4-1.6 2-3.6.8-2.1 1.4-5.3l3.6-20.1h5.2s.4 0 .5-.5l.6-3.3q.1-.5-.5-.5h-5s.2-1.9.8-3.5q.4-1 1-1.7a3 3 0 0 1 1.4-.8l1.7-.3 2.1.4q.7.1.7-.3l1.2-3.3q0-.5-.3-.6m-70.5 34.2q0 .3-.4.4H87q-.5 0-.5-.4V68q0-.5.5-.5h4.2q.3 0 .4.5z"/></g></svg>