<svg xmlns="http://www.w3.org/2000/svg" viewBox="0 0 512 113"><path fill="#362D59" d="M74.1 5.8a12 12 0 0 0-20.5 0L36.8 34.6A83 83 0 0 1 82.2 103H70.4a71 71 0 0 0-39.6-58.2l-15.6 27A41 41 0 0 1 39 102.9H11.7a2 2 0 0 1-1.6-2.9l7.5-12.8A28 28 0 0 0 9 82.4L1.6 95.2a11.6 11.6 0 0 0 4.3 16 12 12 0 0 0 5.8 1.5h37.2a50 50 0 0 0-20.5-44.4l6-10.2a61 61 0 0 1 26.3 54.6h31.5a92 92 0 0 0-42-81.5l12-20.4a2 2 0 0 1 2.7-.7c1.3.7 52 89 52.9 90a2 2 0 0 1-1.8 3h-12.2q.3 4.8 0 9.7h12.3a12 12 0 0 0 11.8-11.8 12 12 0 0 0-1.6-5.9zm244.1 66.6-37.8-48.8H271V89h9.5V39l39 50.1h8.3V23.6h-9.6zM223 60.3h34v-8.5h-34V32h38.2v-8.5h-48V89h48.5v-8.5H223zM183.2 52c-13.2-3.2-16.9-5.7-16.9-11.8 0-5.5 4.8-9.2 12-9.2a31 31 0 0 1 18.2 6.5l5-7.2a36 36 0 0 0-23-7.7c-13 0-22 7.7-22 18.6 0 11.8 7.7 15.9 21.7 19.3 12.5 2.9 16.3 5.5 16.3 11.5s-5.1 9.6-13 9.6a32 32 0 0 1-21.3-8.3l-5.8 6.9a41 41 0 0 0 26.7 9.8c14 0 23-7.5 23-19.2 0-9.9-5.9-15.2-21-18.8M501 23.6l-19.7 30.7-19.6-30.7h-11.4l25.8 39.6V89h9.9V62.9l26-39.3zm-165.5 8.9h21.4V89h9.9V32.5h21.4v-8.9h-52.7zm98.2 31c9.9-2.7 15.3-9.6 15.3-19.5 0-12.6-9.2-20.5-24-20.5h-29V89h9.7V65.5h16.5l16.6 23.6H450l-17.9-25.2zm-28-6.4V32.3H424c9.6 0 15 4.5 15 12.4 0 7.8-5.8 12.4-15 12.4z"/></svg>