<svg width="1739" height="559" viewBox="0 0 1739 559" fill="none" xmlns="http://www.w3.org/2000/svg">
<g clip-path="url(#clip0_1117_94)">
<path fill-rule="evenodd" clip-rule="evenodd" d="M110 -1C49.2487 -1 0 48.2487 0 109V448.266C0 509.017 49.2487 558.266 110 558.266H449.266C510.017 558.266 559.266 509.017 559.266 448.266V109C559.266 48.2487 510.017 -1 449.266 -1H110ZM216.763 115.878V181.779H157.293V239.642C157.293 251.804 161.808 255.643 164.739 258.136C165.516 258.796 166.181 259.362 166.622 259.963L216.18 310.823H157.293V376.034H216.18V441.934H342.697V376.034H216.18L216.18 310.823H327.053C342.406 310.823 342.406 329.422 342.406 337.918V376.034H401.875V318.171C401.875 306.009 397.361 302.17 394.429 299.677C393.653 299.017 392.987 298.451 392.546 297.85L342.406 246.99H401.972L401.875 181.779H342.697L342.406 246.99H232.116C216.763 246.99 216.763 228.391 216.763 219.895V181.779H342.697L342.697 115.878H216.763Z" fill="#FA7216"/>
<path d="M754.592 390.1C726.864 390.1 704.733 384.072 688.2 372.017C671.839 359.789 662.883 342.911 661.333 321.383H701.892C703.269 333.439 708.522 342.567 717.65 348.767C726.95 354.967 739.694 358.067 755.883 358.067C770.522 358.067 781.544 355.656 788.95 350.833C796.528 345.839 800.317 338.606 800.317 329.133C800.317 321.728 797.819 315.786 792.825 311.308C788.003 306.658 780.339 303.3 769.833 301.233L727.467 292.708C708.522 288.747 694.228 282.031 684.583 272.558C675.111 263.086 670.375 250.858 670.375 235.875C670.375 216.758 677.522 201.775 691.817 190.925C706.111 180.075 725.658 174.65 750.458 174.65C775.431 174.65 795.581 180.333 810.908 191.7C826.408 203.067 835.192 218.997 837.258 239.492H796.7C791.533 217.103 775.344 205.908 748.133 205.908C735.906 205.908 726.261 208.233 719.2 212.883C712.311 217.361 708.867 223.819 708.867 232.258C708.867 245.519 718.339 254.131 737.283 258.092L781.2 266.875C800.833 270.836 815.3 277.725 824.6 287.542C834.072 297.186 838.808 310.017 838.808 326.033C838.808 346.356 831.403 362.114 816.592 373.308C801.953 384.503 781.286 390.1 754.592 390.1Z" fill="black"/>
<path d="M941.694 390.1C925.16 390.1 910.694 386.828 898.294 380.283C886.066 373.567 876.594 364.181 869.877 352.125C863.333 339.897 860.06 325.517 860.06 308.983C860.06 292.45 863.333 278.242 869.877 266.358C876.421 254.303 885.721 245.089 897.777 238.717C909.833 232.172 923.955 228.9 940.144 228.9C955.988 228.9 969.594 232 980.96 238.2C992.327 244.228 1001.11 253.011 1007.31 264.55C1013.51 275.917 1016.61 289.436 1016.61 305.108V318.542H897.002C898.552 331.631 903.116 341.706 910.694 348.767C918.444 355.656 928.691 359.1 941.435 359.1C950.908 359.1 958.571 357.378 964.427 353.933C970.455 350.317 974.674 344.978 977.085 337.917H1015.84C1012.22 354.278 1003.87 367.108 990.777 376.408C977.86 385.536 961.499 390.1 941.694 390.1ZM898.035 292.45H979.669C978.291 281.772 974.158 273.678 967.269 268.167C960.552 262.483 951.51 259.642 940.144 259.642C928.949 259.642 919.735 262.483 912.502 268.167C905.269 273.85 900.446 281.944 898.035 292.45Z" fill="black"/>
<path d="M1088.88 387L1022.49 232H1063.05L1109.03 343.6H1110.07L1155.27 232H1194.8L1128.41 387H1088.88Z" fill="black"/>
<path d="M1258.24 389.842C1240.16 389.842 1225.95 385.45 1215.62 376.667C1205.46 367.883 1200.38 356.258 1200.38 341.792C1200.38 326.636 1205.54 314.925 1215.88 306.658C1226.38 298.392 1241.45 294.258 1261.09 294.258H1308.36V288.058C1308.36 269.114 1297.34 259.642 1275.29 259.642C1256.52 259.642 1245.24 266.358 1241.45 279.792H1202.96C1206.23 263.258 1214.07 250.686 1226.47 242.075C1238.87 233.292 1255.14 228.9 1275.29 228.9C1298.03 228.9 1315.34 234.067 1327.22 244.4C1339.1 254.561 1345.04 269.458 1345.04 289.092V348.508H1363.39V387H1323.86V362.2H1313.01C1307.67 370.983 1300.44 377.786 1291.31 382.608C1282.36 387.431 1271.33 389.842 1258.24 389.842ZM1263.93 360.133C1272.37 360.133 1279.94 358.583 1286.66 355.483C1293.38 352.211 1298.63 347.906 1302.42 342.567C1306.38 337.056 1308.36 330.942 1308.36 324.225V320.608H1263.15C1245.76 320.608 1237.06 327.067 1237.06 339.983C1237.06 346.356 1239.39 351.35 1244.04 354.967C1248.86 358.411 1255.49 360.133 1263.93 360.133Z" fill="black"/>
<path d="M1393 387V170H1431.49V387H1393Z" fill="black"/>
<path d="M1469.9 387V170H1508.39V387H1469.9Z" fill="black"/>
<path d="M1594.58 389.842C1576.5 389.842 1562.29 385.45 1551.96 376.667C1541.8 367.883 1536.72 356.258 1536.72 341.792C1536.72 326.636 1541.88 314.925 1552.22 306.658C1562.72 298.392 1577.79 294.258 1597.42 294.258H1644.7V288.058C1644.7 269.114 1633.68 259.642 1611.63 259.642C1592.86 259.642 1581.58 266.358 1577.79 279.792H1539.3C1542.57 263.258 1550.41 250.686 1562.81 242.075C1575.21 233.292 1591.48 228.9 1611.63 228.9C1634.37 228.9 1651.67 234.067 1663.56 244.4C1675.44 254.561 1681.38 269.458 1681.38 289.092V348.508H1699.72V387H1660.2V362.2H1649.35C1644.01 370.983 1636.78 377.786 1627.65 382.608C1618.69 387.431 1607.67 389.842 1594.58 389.842ZM1600.27 360.133C1608.7 360.133 1616.28 358.583 1623 355.483C1629.72 352.211 1634.97 347.906 1638.76 342.567C1642.72 337.056 1644.7 330.942 1644.7 324.225V320.608H1599.49C1582.1 320.608 1573.4 327.067 1573.4 339.983C1573.4 346.356 1575.72 351.35 1580.37 354.967C1585.2 358.411 1591.83 360.133 1600.27 360.133Z" fill="black"/>
</g>
<defs>
<clipPath id="clip0_1117_94">
<rect width="1739" height="559" fill="white"/>
</clipPath>
</defs>
</svg>
