<svg xmlns="http://www.w3.org/2000/svg" width="88" height="22" fill="none"><path fill="#3E4348" fill-rule="evenodd" d="M3.7 0h14.6A3.7 3.7 0 0 1 22 3.7v14.6c0 2-1.6 3.7-3.7 3.7H3.7c-2 0-3.7-1.6-3.7-3.7V3.7C0 1.7 1.6 0 3.7 0m13.1 18q1.1 0 1.2-1.2V5.2Q18 4 16.8 4H5.2A1.2 1.2 0 0 0 4 5.2v11.6Q4 18 5.2 18z" clip-rule="evenodd"/><path fill="#3E4348" d="M8.7 14a1 1 0 0 1-.7-.7V8.7a1 1 0 0 1 .7-.7h4.6a1 1 0 0 1 .7.7v4.6a1 1 0 0 1-.7.7zm24.5-4q-1-.2-1.8-.6Q30 8.8 30 7.6c0-1.5 1.5-2.2 3-2.2q2.1 0 3.5 1.6v.1l1.2-1A6 6 0 0 0 33 3.9q-2 0-3.2 1-1.5 1-1.5 2.8c0 2.7 2.6 3.4 4.7 4 2 .5 3.4.9 3.4 2.5q-.1 2.5-3.3 2.6c-1 0-2.7-.3-3.9-2l-1.3.8v.1q1.8 2.5 5.1 2.5c3 0 5-1.6 5-4 0-2.9-2.8-3.6-4.9-4.2"/><path fill="#3E4348" fill-rule="evenodd" d="M47.5 9.5V8H49v14h-1.4v-5.5q-1.2 1.7-3.4 1.7c-2.7 0-4.5-2.1-4.5-5.2s1.8-5.3 4.5-5.3q2.1 0 3.4 1.8M41.1 13c0 2.8 1.6 3.9 3.1 3.9q3.1-.2 3.3-4-.1-3.6-3.3-3.8c-2.3 0-3.1 2-3.1 3.9" clip-rule="evenodd"/><path fill="#3E4348" d="M58.2 8v5.5q-.2 3.2-3.1 3.4-2.3 0-2.3-2.8V8h-1.4v6.4q.1 3.7 3.5 3.8a4 4 0 0 0 3.3-1.6V18h1.4V8z"/><path fill="#3E4348" fill-rule="evenodd" d="M62.3 9q1.6-1.2 3.9-1.3 3.4.1 3.5 3V18h-1.4v-1.1q-1 1.3-3 1.3-3.4-.1-3.5-3c0-2.5 2.3-2.9 3.3-3l.5-.1c1.3-.2 2.7-.5 2.7-1.6 0-1.3-1.7-1.4-2.2-1.4a5 5 0 0 0-3 1l-.1.1zm1 6c0 1.7 1.4 1.9 2 1.9 1.5 0 3-.8 3-3v-1.4q-1.2.6-2.5.8h-.5q-2 .3-2 1.8" clip-rule="evenodd"/><path fill="#3E4348" d="M77.9 8.2q-.6-.4-1.5-.4-1.6 0-2.8 1.5V8h-1.4v10h1.4v-5.4c0-2.3 1.3-3.4 2.7-3.4l1 .2h.2z"/><path fill="#3E4348" fill-rule="evenodd" d="M78.3 13c0-3 1.9-5.3 4.7-5.3 2.6 0 4.5 2 4.5 4.7v.8h-7.7q.1 3.5 3.4 3.7 1.7 0 2.8-1.4l1 .8v.1a5 5 0 0 1-4 1.8c-2.8 0-4.7-2-4.7-5.2m4.6-3.9c-1.7 0-3 1.1-3.1 2.9H86c-.1-1.4-1-2.9-3-2.9" clip-rule="evenodd"/></svg>