<svg xmlns="http://www.w3.org/2000/svg" viewBox="0 0 512 99"><defs><linearGradient id="logosSupabase0" x1="20.9%" x2="63.4%" y1="20.7%" y2="44.1%"><stop offset="0%" stop-color="#249361"/><stop offset="100%" stop-color="#3ECF8E"/></linearGradient><linearGradient id="logosSupabase1" x1="2%" x2="21.4%" y1="-13.2%" y2="34.7%"><stop offset="0%"/><stop offset="100%" stop-opacity="0"/></linearGradient></defs><path fill="#1F1F1F" d="M253.8 26.4c12.7 0 20 9.7 20 22.6 0 13.1-8.2 22.9-20.4 22.9-5.9 0-10.2-2.3-12.4-5.2l-.1-.1v21H229V27.4h11.4v5.3c2-3.4 6.8-6.3 13.3-6.3m-103-.3c8.7 0 13.3 3.8 15.5 7.6l.2.4.2.4.1.3.2.4.1.4.2.3v.2l.1.3.1.4.1.3v.2l.1.3.1.4v.3l.1.3-9.8 2.2c-.3-2.6-2.2-5.8-7.1-5.8-3.1 0-5.6 1.8-5.6 4.3q.2 3.1 3.8 3.8h.2l6.2 1.4c8.5 1.8 12.8 7 12.8 13.3 0 7-5.4 14.3-16.8 14.3-8.6 0-13.4-3.6-16-7.5l-.2-.4-.2-.4-.2-.4-.3-.5-.1-.4-.2-.4-.1-.3-.2-.4v-.2l-.1-.3-.1-.4-.1-.3v-.4l-.2-.3v-.8l10-2.2c.2 3.4 2.8 6.6 7.9 6.6 3.9 0 5.7-2 5.7-4.3 0-1.9-1.2-3.4-4.4-4.2h-.2l-5.8-1.4c-8.3-1.8-12.1-6.8-12.1-13 0-7.7 6.8-14.1 16.2-14.1m294.8 0c8.5 0 13 3.6 15.3 7.5l.2.3.6 1.1.1.4.1.3.2.6.1.3v.2l.2.3v.5l.1.2v.3l.1.2v.3l-9.7 2.2v-.3l-.3-.8v-.3c-.8-2.2-2.8-4.4-6.9-4.4-3 0-5.5 1.8-5.5 4.3 0 2 1.5 3.4 3.7 3.8h.2l6.2 1.4c8.6 1.8 12.9 7 12.9 13.3 0 7-5.5 14.3-16.9 14.3-8.4 0-13.2-3.5-15.8-7.4l-.2-.3-.2-.4-.2-.4-.2-.3-.3-.6-.2-.4-.1-.3v-.2l-.2-.4-.1-.3-.1-.4v-.2l-.2-.3v-.4l-.1-.3v-.3l-.1-.3v-.2l10-2.2c.3 3.4 2.8 6.6 8 6.6 3.8 0 5.7-2 5.7-4.3q.1-3-4.4-4.2h-.3l-5.7-1.4c-8.4-1.8-12.2-6.8-12.2-13 0-7.7 6.9-14.1 16.2-14.1m44.9 0C504 26 512 34.6 512 48.6v1.7l-.1 1v.8h-31c.2 5.8 5 10 10.8 10 5.4 0 8.4-2.7 9.8-6.4l.1-.3 9.8 3c-2.2 7.5-9 13.7-19.8 13.7A22 22 0 0 1 469.3 49c0-13.8 10.2-22.8 21.3-22.8m-190.7 0c13 0 18.4 7 18.9 15.2v25.3l.1.7v.7l.1.6.1.7v.5l.1.5v.3l.1.2h-10.7q-.4-1.5-.4-4v-1.2a15 15 0 0 1-12.8 6.4c-9.3 0-15-6.2-15-13 0-7.7 5.6-12 12.7-13.1h.3l10.7-1.7c2.4-.3 3.2-1.6 3.2-3 0-3.1-2.3-5.7-7.3-5.7s-7.8 3.1-8.2 6.8v.3l-10.5-2.2c.7-6.8 7-14.3 18.6-14.3m101.5 0c13 0 18.3 7 18.8 15.2V65l.1.7V67l.1.6v.7l.1.7v.3l.1.5.2.8v.2H410l-.3-2.6v-1.7l-.1-1a15 15 0 0 1-12.8 6.5c-9.2 0-14.9-6.2-14.9-13 0-7.7 5.6-12 12.7-13.1h.3l10.6-1.7c2.5-.3 3.3-1.6 3.3-3 0-3.1-2.4-5.7-7.3-5.7s-7.8 3.1-8.3 6.8v.3l-10.4-2.2c.7-6.8 7-14.3 18.6-14.3m-212.6 1.3v25c0 4.9 2.5 8.8 8 8.8 5 0 8-3.4 8.1-8.3V27.4h11.7v38.4l.1 1v.6l.1.9.1.8v1l.2.5v.2h-11.2v-.2l-.1-.3v-.4l-.1-.5v-.7l-.1-.6v-2c-2.5 4-7.5 5.8-12 5.8-10.4 0-16.4-7.5-16.5-16.8V27.4zM342.2 6.9v25.2c1.9-3 6.6-5.9 13-5.9 12.8 0 20 9.8 20 22.7 0 13.2-8 23-20.4 23-5.8 0-10.3-2.6-12.7-6.2l-.1-.2v5.3h-11.4V6.9zm-34.9 46.3v-2l-9.7 1.6c-3 .4-5.4 2.1-5.4 5.5 0 2.5 1.8 5 5.6 5 4.9 0 9.4-2.3 9.5-9.7zm101.5 0v-2l-9.8 1.6c-3 .4-5.4 2.1-5.4 5.5 0 2.5 1.9 5 5.7 5 4.8 0 9.4-2.3 9.5-9.7zM251.5 37c-6 0-10.8 4.5-10.8 12.2s4.8 12.2 10.8 12.2 10.8-4.5 10.8-12.2S257.5 37 251.5 37m101.3-.2C347 36.7 342 41.1 342 49s5 12.3 10.8 12.3c6 0 10.8-4.4 10.8-12.3s-4.8-12.3-10.8-12.3m138-1.1c-6 0-9.4 4.4-9.7 8.3v.2h19.4c-.2-4.3-3-8.5-9.7-8.5"/><path fill="url(#logosSupabase0)" d="M56.2 97.1a4.3 4.3 0 0 1-7.7-2.6l-1-59.3h40a8.6 8.6 0 0 1 6.7 14z"/><path fill="url(#logosSupabase1)" fill-opacity=".2" d="M56.2 97.1a4.3 4.3 0 0 1-7.7-2.6l-1-59.3h40a8.6 8.6 0 0 1 6.7 14z"/><path fill="#3ECF8E" d="M40 1.6a4.3 4.3 0 0 1 7.6 2.7l.4 59.3H8.7a8.6 8.6 0 0 1-6.8-14z"/></svg>