<svg xmlns="http://www.w3.org/2000/svg" viewBox="0 0 512 116"><path d="M255.4 29c-20 0-34.4 13-34.4 32.6 0 19.5 16.2 32.6 36.2 32.6 12.1 0 22.8-4.8 29.4-12.9l-13.9-8c-3.7 4-9.2 6.4-15.5 6.4-8.6 0-16-4.6-18.7-11.8h50.7q.6-3 .6-6.3c0-19.6-14.4-32.6-34.4-32.6m-17.1 26.2c2.3-7.2 8.4-11.7 17.1-11.7s14.9 4.5 17.1 11.7zM450.4 29c-20 0-34.4 13-34.4 32.6 0 19.5 16.2 32.6 36.2 32.6 12.1 0 22.8-4.8 29.4-12.9l-13.9-8c-3.7 4-9.2 6.4-15.5 6.4-8.6 0-16-4.6-18.7-11.8h50.7q.6-3 .6-6.3c0-19.6-14.4-32.6-34.4-32.6m-17 26.2c2.2-7.2 8.4-11.7 17-11.7s14.9 4.5 17.1 11.7zm-70.8 6.4c0 10.8 7.1 18 18.1 18 7.5 0 13.1-3.3 16-8.8l13.9 8a34 34 0 0 1-29.9 15.4c-20 0-34.4-13-34.4-32.6S360.7 29 380.7 29c13.3 0 24.1 5.8 29.9 15.4l-14 8c-2.8-5.6-8.4-9-15.9-9-11 0-18 7.3-18 18.2M512 9v83.3h-16.3V9zM67 0l66.8 115.9H0zm167.2 9L184 96 133.8 9h18.9L184 63.5 215.4 9zM341 30.9v17.5q-2.7-.8-5.8-.9A17.3 17.3 0 0 0 317 65.6v26.8h-16.3V30.8H317v16.6c0-9.2 10.7-16.6 23.9-16.6"/></svg>