<svg xmlns="http://www.w3.org/2000/svg" viewBox="0 0 128 128"><defs><linearGradient id="deviconVitejs0" x1="6" x2="235" y1="33" y2="344" gradientTransform="translate(0 1)scale(.3122)" gradientUnits="userSpaceOnUse"><stop offset="0" stop-color="#41d1ff"/><stop offset="1" stop-color="#bd34fe"/></linearGradient><linearGradient id="deviconVitejs1" x1="194.7" x2="236.1" y1="8.8" y2="293" gradientTransform="translate(0 1)scale(.3122)" gradientUnits="userSpaceOnUse"><stop offset="0" stop-color="#ffea83"/><stop offset=".1" stop-color="#ffdd35"/><stop offset="1" stop-color="#ffa800"/></linearGradient></defs><path fill="url(#deviconVitejs0)" d="M124.8 19.5 67.3 122.2a3.1 3.1 0 0 1-5.4 0L3.3 19.6c-1.3-2.3.7-5 3.3-4.6L64 25.2h1l56.4-10.3a3.1 3.1 0 0 1 3.3 4.6m0 0"/><path fill="url(#deviconVitejs1)" d="M91.5 1.4 49 9.8a2 2 0 0 0-1.3 1.4l-2.6 44.2A1.6 1.6 0 0 0 47 57l11.8-2.8a1.6 1.6 0 0 1 1.9 1.9l-3.5 17.2a1.6 1.6 0 0 0 2 1.8l7.3-2.2c1.1-.4 2.2.6 2 1.8l-5.6 27c-.4 1.7 1.9 2.7 2.8 1.2l.6-1L101 32.8c.6-1.2-.4-2.5-1.7-2.2L87 32.9a1.6 1.6 0 0 1-1.8-2l8-27.5a1.6 1.6 0 0 0-1.8-2m0 0"/></svg>