<svg xmlns="http://www.w3.org/2000/svg" viewBox="0 0 128 128"><path fill="#FCC72B" d="M96 40.8 65.6 85.1a2.6 2.6 0 0 1-4.4 0 3 3 0 0 1-.4-1.6L61.9 59 42 54.8a3 3 0 0 1-1.9-1.6 3 3 0 0 1 .3-2.4L71.1 6.6a3 3 0 0 1 3-1 3 3 0 0 1 1.3 1q.6.7.5 1.6l-1.2 24.4 19.7 4.2q.8.1 1.2.5a2.6 2.6 0 0 1 .5 3.5"/><path fill="#729B1B" d="M64 122.2a6 6 0 0 1-4.4-1.8l-28.9-29A6.2 6.2 0 0 1 35.1 81a6 6 0 0 1 4.4 1.8L64 107.2l53.5-53.4a6.2 6.2 0 0 1 8.7 8.7l-57.8 57.9a6 6 0 0 1-4.4 1.8"/><path fill="#729B1B" fill-opacity=".5" d="M64 122.2q1.2 0 2.4-.5a6 6 0 0 0 2-1.3l28.9-29a6 6 0 0 0 0-8.7 6 6 0 0 0-8.8 0L64 107.2 10.5 53.8a6.2 6.2 0 0 0-8.7 8.7l57.8 57.9a6 6 0 0 0 4.4 1.8"/></svg>