<svg xmlns="http://www.w3.org/2000/svg" width="242" height="283"><g id="Robot-Edit" fill="none" fill-rule="evenodd" stroke="none" stroke-width="1"><g id="Group"><path id="Fill-1" fill="#EA5906" d="M61 100h5v-5h-5z"/><path id="Fill-2" fill="#EA5906" d="M70 100h5v-5h-5z"/><path id="Fill-3" fill="#EA5906" d="M78 100h5v-5h-5z"/><path id="Fill-4" fill="#EA5906" d="M87 100h5v-5h-5z"/><path id="Fill-5" fill="#EA5906" d="M60 53.7V22.2a15.8 15.8 0 1 0 0 31.5"/><path id="Fill-7" fill="#EA5906" d="M197.8 38c0-8.8-7-15.8-15.7-15.8v31.5c8.7 0 15.7-7 15.7-15.8"/><path id="Fill-9" fill="#EA5906" d="M97.6 23.7a13.1 13.1 0 1 1 0 26.2 13.1 13.1 0 0 1 0-26.2m0 29.2a16.2 16.2 0 1 0 0-32.3 16.2 16.2 0 0 0 0 32.3"/><path id="Fill-11" fill="#EA5906" d="M97.6 47.7a11 11 0 1 0 0-21.9 11 11 0 0 0 0 22"/><path id="Fill-13" fill="#EA5906" d="M144.4 23.7a13.1 13.1 0 1 1 0 26.2 13.1 13.1 0 0 1 0-26.2m0 29.2a16.2 16.2 0 1 0 0-32.3 16.2 16.2 0 0 0 0 32.3"/><path id="Fill-15" fill="#EA5906" d="M144.4 47.7a11 11 0 1 0 0-21.9 11 11 0 0 0 0 22"/><path id="Fill-17" fill="#EA5906" d="M166.3 35.2h5.1v-5.1h-5.1z"/><path id="Fill-19" fill="#EA5906" d="M166.3 42.5h5.1v-5.1h-5.1z"/><path id="Fill-20" fill="#EA5906" d="M67.2 12.1c0-5 4.1-9 9.1-9h89.4c5 0 9 4 9 9v39.5c0 5-4 9-9 9H76.3c-5 0-9-4-9-9zm9.1 51.6h89.4a12 12 0 0 0 12.1-12V12A12 12 0 0 0 165.7-.1H76.3A12 12 0 0 0 64.2 12v39.5a12 12 0 0 0 12.1 12.1"/><path id="Combined-Shape" fill="#EA5906" d="M189.2 68.5a12 12 0 0 1 12.1 11.8v1.5c8.1 1.3 35 10.3 35.5 39.1V186c3.2 2 5.2 5 5.2 8.2q-.1 3.7-3.2 6.6c-.2 4.6 1 13.6 1.7 17.3v.6c0 .1 0 4.7-2.9 7.7a9 9 0 0 1-6.7 2.5c-8.7 0-9.1-7.3-9.3-10.8v-1.2q-.3-2.2-1.6-2.2c-1 0-1.6.3-2.6 1.8-2.7 4-7.7 3.6-10.4 2a6 6 0 0 1-2.8-3.7q-.7-3.5 2.4-8a9 9 0 0 0 2-6 9 9 0 0 1-3.3-6.6q.2-4.8 5-8l.2-.3v-57.8c0-4.8-1.5-6.6-4.5-9.3a9 9 0 0 0-4.3-2.1l-.4-.1v92.3a12 12 0 0 1-11.8 12h-8.9v34h7.4l.2.1c2.1.6 11.4 3.6 12.9 14.5V283H159l-13-4.5v-9.9q-.4-7.5 2.5-10.7l.2-.2V221H93.2v36.7q3 3 2.6 10.5v10.3l-13 4.5H40.6v-13A17 17 0 0 1 54 255l.1-.1h7v-34h-8.3a12 12 0 0 1-12.1-11.7v-92.6q-2.7.4-4.7 2.2c-3 2.6-4.4 4.4-4.5 9v58.1q5 3.3 5.2 8.3-.1 3.7-3.2 6.6a9 9 0 0 0 1.9 6q3.2 4.5 2.4 8-.5 2.4-2.8 3.8c-2.7 1.5-7.7 2-10.4-2.1-1-1.5-1.6-1.8-2.5-1.8H22q-1.3 0-1.5 2.2l-.1 1.2c-.2 3.5-.6 10.8-9.3 10.8a9 9 0 0 1-6.7-2.5c-2.8-2.8-3-7-3-7.7v-.3c.7-3.5 2-12.9 1.8-17.6a9 9 0 0 1-3.2-6.6q.2-4.8 4.9-8l.3-.2v-64.2c0-29.2 26.8-38.5 35.2-40h.3v-1.2a12 12 0 0 1 11.8-12.1zm8.5 199.7h-36.4v1.8h36.8zm-117.2 0H44l-.3 1.3v.5h36.7zm70.3-8.4q-1.8 1.8-1.9 6.3v.4l9.4 3.3c0-3.3-1.5-6.8-3.1-8.7q-1.7-2-2.7-2t-1.7.7m-61.4-.7h-.2q-.9 0-2.6 2a15 15 0 0 0-3.2 8.3v.4l9.4-3.3q0-4.8-1.8-6.7-.6-.6-1.4-.7zm98-1.2h-31l1.1 1.2a18 18 0 0 1 3.4 6.9l.1.4h36.2a14 14 0 0 0-9.9-8.5m-102 0h-31c-.9.3-7 1.9-9.7 8.1l-.1.4h36.1a18 18 0 0 1 4.6-8.5m-18.6-37H63v34h3.8zm23.3 0H86v20h1.5v6.5H86v7.5h4.2zm88.7 0h-3.9v34h3.9zm-23 0h-4.2v34h4.2v-7.5h-1.4V241h1.4zM6.3 203a139 139 0 0 1-1.8 15.8c0 .6.2 3.6 2 5.4a6 6 0 0 0 4.6 1.7q3.2 0 4.4-1.6c-1.3-.2-3-.9-4-2.3q-1.8-2.3-.7-5.9l1-3.3v-.5l1.2-6.8q-3.8-.8-6.7-2.5m229.4 0q-2.9 1.7-6.7 2.5c.5 4 .8 5.4 1.1 6.8l.1.2v.3l.5 1.3.5 2q1 3.6-.7 5.9a7 7 0 0 1-4 2.3q1.2 1.6 4.4 1.6a6 6 0 0 0 4.5-1.7c2-1.8 2.1-4.8 2.1-5.4-.1-.9-.8-5.2-1.3-9.8v-.7q-.4-2.7-.5-5.3m-16.7 2.6q-1.3 2-3 3.6a17 17 0 0 0-2.7 3.6q-.4.8-.2 1.3.4.9 1.1 1.4l.7-.7c1-1.7 2.5-3.2 5.2-3.2 2.5 0 4.2 2 4.5 5v1.3q.1 2 .5 3.6c.9-.1 2.3-.5 3-1.4q.8-1.1.2-3.1l-.6-2c-.7-2.5-1-3.3-1.8-9.1a29 29 0 0 1-7-.3m-196 0a28 28 0 0 1-7 .3c-.8 5.8-1 6.6-1.7 9l-.6 2q-.6 2.1.2 3.2c.7 1 2.1 1.3 3 1.4a22 22 0 0 0 .5-5q.6-4.6 4.5-4.9c2.7 0 4.1 1.5 5.2 3.2l.7.7q.7-.6 1-1.4.3-.6 0-1.3a17 17 0 0 0-2.9-3.6q-1.5-1.7-2.9-3.6m188.5-2.6q-.4 2.4-2.4 5.5-2.4 3.5-2 5.6.3 1.2 1.5 1.8a6 6 0 0 0 3.2.7q-.7-.7-1-1.7a4 4 0 0 1 .3-3.2 19 19 0 0 1 3.2-4.2l2.1-2.5q-2.7-.8-5-2m-181 0q-2.1 1.2-5 2l2.2 2.5a19 19 0 0 1 3.2 4.2 4 4 0 0 1 .3 3.2q-.4 1-1 1.7a6 6 0 0 0 3.2-.7q1.2-.6 1.5-1.8.4-2.1-2-5.6a13 13 0 0 1-2.4-5.5M185 183H58v18c0 6.5 5.3 11.8 11.8 12h103.1a12 12 0 0 0 12.1-11.7zm16.3-96.9v18.4q5.4 1.5 10 5.3c4.7 4.2 7 11 7.2 17.9V182h14v-60.3q0-18-14.8-28.6a45 45 0 0 0-16.4-7m-160.6 0a45 45 0 0 0-16.4 7.1 33 33 0 0 0-14.8 28v60.9h14v-54c0-7 2.4-14 7.2-18.3q4.2-3.6 9.5-5.1l.5-.2zM185 125h-67v36h67zm-124 3h-2v30h2zm32 0a15 15 0 1 0 0 30 15 15 0 0 0 0-30m-15 0h-2l-12 30h2zm15 1.9a13.1 13.1 0 1 1 0 26.2 13.1 13.1 0 0 1 0-26.2M173 76H70a12 12 0 0 0-12 11.7V103h127V88a12 12 0 0 0-12-12"/><path id="Path-2" stroke="#EA5906" stroke-linecap="square" stroke-width="2" d="M118 150.7q10-15.5 31-1.8c21 13.7 13-28.4 36-6.4"/><circle id="Oval" cx="75" cy="198" r="12" stroke="#EA5906" stroke-width="2"/><circle id="Oval-Copy-2" cx="105" cy="198" r="12" stroke="#EA5906" stroke-width="2"/><path id="Path-5" stroke="#EA5906" stroke-linecap="round" stroke-width="4" d="M75 209v-11"/><path id="Path-6" stroke="#EA5906" stroke-linecap="round" stroke-width="4" d="m105 198 6.9-7.9"/><path id="Path-7" stroke="#EA5906" stroke-linecap="round" stroke-width="4" d="M133 190.5h38m-38 7h38m-38 7h22"/></g></g></svg>